<svg xmlns="http://www.w3.org/2000/svg" width="25" height="24" xmlns:v="https://vecta.io/nano"><path d="M12.957 0c6.628 0 12 5.372 12 12s-5.372 12-12 12-12-5.372-12-12 5.372-12 12-12zm-2.07 1.992l-.127.027a10.25 10.25 0 0 0-7.288 6.206l-.048.123 1.66 2.453a4.68 4.68 0 0 0 .726.834 6.09 6.09 0 0 0 1.359.942l.422.217.486.257.714.385.372.203.373.206a2.42 2.42 0 0 1 1.245 2.004l.003.115v1.533a.65.65 0 0 0 .188.454c.84.84 1.416 2.164 1.348 3.077l-.01.108.003 1.056.238.016.217.01.128.003h.064a7.45 7.45 0 0 0 .338-.008l.247-.014.2-.016 1.275-3.437.036-.113.038-.136.108-.423c.08-.306.233-.588.442-.825l.08-.087.543-.543c.253-.25.397-.597.397-.95a.58.58 0 0 0-.125-.356l-.043-.048-.656-.656c-.102-.102-.238-.167-.382-.184l-.072-.004H12l-.055-.013-.162-.08c-.264-.132-.446-.303-.735-.677l-.142-.188-.232-.313-.12-.155-.065-.077-.03-.034-.127-.007c-.473-.037-.94-.155-1.37-.348l-.16-.076-.53-.266c-.498-.25-.808-.75-.808-1.308a1.46 1.46 0 0 1 .911-1.354l.088-.032 1.493-.497c.258-.088.534-.107.802-.06l.054.01-.064-.128c-.236-.472-.16-1.03.188-1.416l.064-.066.475-.462a1.27 1.27 0 0 1 .787-.357l.1-.004h.033l-.008-.014c-.262-.46-.212-1.05.145-1.462l.062-.067.632-.633-2.345-2.345zM2.96 10.605l-.046.28-.036.233a9.15 9.15 0 0 0-.101 1.317 9.6 9.6 0 0 0 7.458 9.342h0l.14.032v-1.1l.005-.075c.01-.466-.332-1.264-.825-1.758h0l-.073-.077a1.98 1.98 0 0 1-.511-1.332h0v-1.405l-.003-.073c-.024-.267-.18-.507-.414-.638h0l-.658-.36-.326-.176-.468-.25-.423-.222-.247-.126a6.86 6.86 0 0 1-1.517-1.043c-.366-.33-.665-.67-.92-1.047h0L2.96 10.605zm10.234-8.822l1.385 1.385c.313.313.485.73.485 1.17 0 .404-.145.788-.4 1.1l-.075.08-.372.372.037.052c.313.47.278 1.104-.098 1.538l-.062.067-.383.383c-.216.216-.497.345-.8.37l-.1.004h-.225l-.06.06.58 1.162c.185.368.18.795-.01 1.156l-.047.082c-.218.353-.585.573-.994.6l-.088.003h-.27c-.102 0-.203-.012-.3-.036l-.017-.005.058.04c.2.153.42.385.67.712l.335.45.096.123h2.86a2.44 2.44 0 0 1 1.62.622l.092.088.656.656a2.37 2.37 0 0 1 .688 1.662c0 .775-.297 1.534-.82 2.105l-.1.105-.44.44a2.47 2.47 0 0 0-.074.077l-.048.056a.25.25 0 0 0-.036.06l-.005.017-.1.393-.067.238-.043.135-.046.13-.886 2.388.143-.042c3.592-1.092 6.327-4.097 7.055-7.797l.014-.08-2.156-.54a2.04 2.04 0 0 1-1.135-.752l-.068-.095-.86-1.29a2.03 2.03 0 0 1-.06-2.168l.06-.095.938-1.407a2.04 2.04 0 0 1 .667-.629l.117-.063.976-.488-.032-.048c-1.815-2.702-4.8-4.403-8.085-4.53l-.16-.005zM22.32 7.93l-1.032.516c-.026.013-.05.03-.07.05l-.028.035-.938 1.407c-.05.075-.057.17-.02.25l.02.04.86 1.292c.026.04.063.07.107.09l.047.016 1.906.476.005-.104a10.12 10.12 0 0 0-.806-3.955l-.05-.115zm-11.862 2.776l-.688.23.085.034c.214.077.44.124.666.137l.136.004c.107 0 .206.01.3.03l.027.007-.056-.038-.08-.064-.392-.34z" fill="#1d252d"/></svg>