<svg xmlns="http://www.w3.org/2000/svg" width="36.142" height="36.142" viewBox="0 0 36.142 36.142">
  <g id="Group_35887" data-name="Group 35887" transform="translate(-2 -2)">
    <path id="Path_16039" data-name="Path 16039" d="M10.132,30.914v-.163a33.488,33.488,0,0,1,.157-4.164,6.249,6.249,0,0,1,1.7-3.759,6.264,6.264,0,0,1,3.759-1.7,33.937,33.937,0,0,1,4.167-.155h.322a33.5,33.5,0,0,1,4.165.157,5.833,5.833,0,0,1,5.457,5.454,33.188,33.188,0,0,1,.155,4.1,10.176,10.176,0,0,0,1.184-19.62A10.334,10.334,0,0,0,10.605,12.2a10.088,10.088,0,0,0,.64,3.546,7.871,7.871,0,0,0-1.5-.145,7.655,7.655,0,1,0,0,15.308Z" fill="#a54ee2" opacity="0.5"/>
    <path id="Path_16040" data-name="Path 16040" d="M15.228,14c-3.408,0-5.111,0-6.169,1.059S8,17.82,8,21.228,8,26.339,9.059,27.4s2.761,1.059,6.169,1.059,5.111,0,6.169-1.059,1.059-2.761,1.059-6.169,0-5.111-1.059-6.169S18.637,14,15.228,14Zm3.262,5.573L16.08,17.164a1.205,1.205,0,0,0-1.7,0l-2.411,2.409a1.205,1.205,0,1,0,1.7,1.7l.352-.352v3.517a1.205,1.205,0,1,0,2.411,0V20.925l.352.352a1.205,1.205,0,0,0,1.7-1.7Z" transform="translate(4.843 9.685)" fill="#a54ee2" fill-rule="evenodd"/>
  </g>
</svg>
