<svg width="32" height="32" viewBox="0 0 32 32" fill="none" xmlns="http://www.w3.org/2000/svg">
<g id="Frame">
<path id="Vector" d="M7.78253 13.5156C4.84724 14.2137 2.66406 16.8527 2.66406 20.0016C2.66406 23.6835 5.64883 26.6683 9.33073 26.6683C9.96233 26.6683 10.5734 26.5805 11.1524 26.4164" stroke="#7711C6" stroke-width="2" stroke-linejoin="bevel"/>
<path id="Vector_2" d="M24.0339 13.5156C26.9693 14.2137 29.1524 16.8527 29.1524 20.0016C29.1524 23.6835 26.1677 26.6683 22.4857 26.6683C21.8541 26.6683 21.2431 26.5805 20.6641 26.4164" stroke="#7711C6" stroke-width="2" stroke-linejoin="bevel"/>
<path id="Vector_3" d="M24 13.332C24 8.91376 20.4183 5.33203 16 5.33203C11.5817 5.33203 8 8.91376 8 13.332" stroke="#7711C6" stroke-width="2" stroke-linejoin="bevel"/>
<path id="Vector_4" d="M11.375 18.5875L15.998 13.9492L20.7526 18.6668" stroke="#7711C6" stroke-width="2" stroke-linejoin="bevel"/>
<path id="Vector_5" d="M16 25.3341V16.3086" stroke="#7711C6" stroke-width="2" stroke-linejoin="bevel"/>
</g>
</svg>
