<svg width="25" height="24" viewBox="0 0 25 24" fill="none" xmlns="http://www.w3.org/2000/svg">
<path fill-rule="evenodd" clip-rule="evenodd" d="M6.40367 6.43691L3.87346 8.74355C2.04218 10.413 2.04218 13.587 3.87346 15.2564L6.40367 17.5631C9.9678 20.8123 15.0322 20.8123 18.5963 17.5631L21.1265 15.2564C22.9578 13.587 22.9578 10.413 21.1265 8.74355L18.5963 6.43691C15.0322 3.1877 9.9678 3.1877 6.40367 6.43691ZM17.5 12C17.5 14.7614 15.2614 17 12.5 17C9.73858 17 7.5 14.7614 7.5 12C7.5 9.23858 9.73858 7 12.5 7C15.2614 7 17.5 9.23858 17.5 12ZM14.5 12C14.8597 12 15.1972 11.9051 15.4888 11.7389C15.4962 11.8249 15.5 11.912 15.5 12C15.5 13.6569 14.1569 15 12.5 15C10.8431 15 9.5 13.6569 9.5 12C9.5 10.3431 10.8431 9 12.5 9C12.588 9 12.6751 9.00379 12.7611 9.01121C12.5949 9.30283 12.5 9.64033 12.5 10C12.5 11.1046 13.3954 12 14.5 12Z" fill="#0038FF"/>
</svg>
