<svg width="24" height="24" viewBox="0 0 24 24" fill="none" xmlns="http://www.w3.org/2000/svg">
<path fill-rule="evenodd" clip-rule="evenodd" d="M13.4651 20.7875C13.9884 20.4845 14.407 19.6764 14.407 19.0704V14.727C14.407 13.919 14.8256 12.9089 15.4535 12.4038L19.9535 8.56553C20.4767 8.06049 21 7.0504 21 6.24234V4.02016C21 2.90907 20.0581 2 18.907 2L5.09302 2C3.94186 2 3 2.90907 3 4.12117V6.44436C3 7.0504 3.4186 7.95948 3.94186 8.46452L7.91861 12.5048C8.33721 13.0099 8.75581 13.919 8.75581 14.626V19.9794C8.75581 21.321 9.43852 22.0078 10.563 21.9999C11.5229 21.9932 12.3817 21.46 13.1992 20.9525C13.2174 20.9412 13.2356 20.9299 13.2538 20.9186L13.4651 20.7875ZM18.5893 7.10037C18.651 7.03116 18.763 6.87912 18.8636 6.66545C18.9167 6.55272 18.9541 6.44877 18.9766 6.36347C18.9983 6.28167 18.9999 6.24152 19 6.24153C19 6.24153 19 6.2418 19 6.24234V4.03635C18.9989 4.03518 18.9977 4.03388 18.9962 4.03246C18.9787 4.01552 18.9493 4 18.907 4L5.09302 4C5.07024 4 5.05671 4.00416 5.04908 4.00734C5.0406 4.01087 5.03366 4.01565 5.02796 4.02134C5.02248 4.02681 5.01677 4.03447 5.01194 4.0461C5.00758 4.05659 5 4.07961 5 4.12117V6.40443C5.00142 6.41095 5.00349 6.4197 5.00642 6.43073C5.02055 6.48384 5.04699 6.56023 5.08862 6.64986C5.12984 6.73861 5.17808 6.82338 5.22715 6.89545C5.27756 6.9695 5.31575 7.01095 5.3308 7.02548C5.34311 7.03735 5.35525 7.04938 5.36724 7.06156L9.34399 11.1019C9.38392 11.1425 9.42211 11.1847 9.45844 11.2285C9.81523 11.659 10.1213 12.1919 10.3418 12.724C10.5573 13.2439 10.7558 13.9185 10.7558 14.626V19.9734C11.041 19.9049 11.4349 19.6935 12.1993 19.2192L12.3549 19.1227C12.3602 19.1142 12.3658 19.1046 12.3715 19.094C12.381 19.0765 12.3894 19.0586 12.3964 19.0415C12.4009 19.0305 12.4044 19.0209 12.407 19.0131V14.727C12.407 14.0039 12.5875 13.2758 12.8638 12.647C13.1335 12.0335 13.558 11.3709 14.1736 10.8668L18.5893 7.10037Z" fill="#0038FF"/>
</svg>
