<svg width="24" height="24" viewBox="0 0 24 24" fill="none" xmlns="http://www.w3.org/2000/svg">
<path fill-rule="evenodd" clip-rule="evenodd" d="M21 22C21.5523 22 22 21.5523 22 21L22 13.5C22 11.567 20.433 10 18.5 10H17.5C16.9632 10 16.4546 10.1208 16 10.3368L16 5.5C16 3.567 14.433 2 12.5 2H11.5C9.567 2 8 3.567 8 5.5L8 7.33682C7.54537 7.12085 7.0368 7 6.5 7L5.5 7C3.567 7 2 8.567 2 10.5L2 21C2 21.5523 2.44772 22 3 22L21 22ZM12.5 4H11.5C10.6716 4 10 4.67157 10 5.5L10 20H14L14 5.5C14 4.67157 13.3284 4 12.5 4ZM8 20L8 10.5C8 9.67157 7.32843 9 6.5 9H5.5C4.67157 9 4 9.67157 4 10.5L4 20H8ZM16 20V13.5C16 12.6716 16.6716 12 17.5 12H18.5C19.3284 12 20 12.6716 20 13.5L20 20L16 20Z" fill="#0038FF"/>
</svg>
