<svg xmlns="http://www.w3.org/2000/svg" xmlns:xlink="http://www.w3.org/1999/xlink" width="60.094" height="30.023" viewBox="0 0 60.094 30.023">
  <defs>
    <clipPath id="clip-path">
      <path id="Path_9954" data-name="Path 9954" d="M0-1381H60.094v30.023H0Z" transform="translate(0 1380.999)" fill="none" clip-rule="evenodd"/>
    </clipPath>
    <clipPath id="clip-path-2">
      <rect id="Rectangle_2807" data-name="Rectangle 2807" width="60.321" height="30.305" fill="none"/>
    </clipPath>
    <clipPath id="clip-path-3">
      <path id="Path_9953" data-name="Path 9953" d="M30.444-1350.976a7.83,7.83,0,0,0,4.91-1.4v-5.051a5.4,5.4,0,0,1-3.133.935,3.273,3.273,0,0,1-2.338-.748,3.251,3.251,0,0,1-.7-2.338V-1381H23.009v6.313H35.355v5.986H23.009v10.616a7.137,7.137,0,0,0,1.824,5.1,7.688,7.688,0,0,0,5.612,2.011m18.893,0a11.118,11.118,0,0,0,7.95-3.04,10.36,10.36,0,0,0,2.806-4.723l-5.472-1.824a5.291,5.291,0,0,1-1.45,2.432,5.328,5.328,0,0,1-3.835,1.45,5.869,5.869,0,0,1-4.162-1.684,6.787,6.787,0,0,1-1.73-4.817,6.708,6.708,0,0,1,1.73-4.817,5.719,5.719,0,0,1,4.115-1.637,4.961,4.961,0,0,1,3.694,1.4,5.985,5.985,0,0,1,1.4,2.479l5.565-1.871a10.51,10.51,0,0,0-2.619-4.63,11.391,11.391,0,0,0-8.184-3.133,11.866,11.866,0,0,0-8.465,3.414,12.363,12.363,0,0,0-3.461,8.792,12.238,12.238,0,0,0,3.554,8.792,12.009,12.009,0,0,0,8.558,3.414m-39.47,0a10.428,10.428,0,0,0,7.389-2.619,6.809,6.809,0,0,0,2.011-4.91,6.356,6.356,0,0,0-1.871-4.583,9.72,9.72,0,0,0-5.144-2.525l-3.6-.7c-1.5-.281-2.338-1.029-2.338-2.058,0-1.356,1.309-2.291,3.414-2.291a4.425,4.425,0,0,1,3.18,1.169,3.482,3.482,0,0,1,.889,1.917l5.191-1.169a6.287,6.287,0,0,0-1.917-3.881,10.371,10.371,0,0,0-7.389-2.759,10.06,10.06,0,0,0-6.875,2.432,6.825,6.825,0,0,0-2.2,5.051,5.851,5.851,0,0,0,1.684,4.3,10.135,10.135,0,0,0,4.91,2.479l3.554.842c1.777.421,2.572,1.076,2.572,2.245,0,1.45-1.309,2.292-3.461,2.292a4.864,4.864,0,0,1-3.6-1.356,3.252,3.252,0,0,1-.935-2.151L0-1358.084a6.634,6.634,0,0,0,2.011,4.115,10.8,10.8,0,0,0,7.857,2.993" transform="translate(0 1380.999)" fill="none" clip-rule="evenodd"/>
    </clipPath>
    <clipPath id="clip-path-4">
      <path id="Path_9952" data-name="Path 9952" d="M0-1350.939H60.119V-1381H0Z" transform="translate(0 1380.999)" fill="none"/>
    </clipPath>
  </defs>
  <g id="logo" clip-path="url(#clip-path)">
    <g id="Group_10714" data-name="Group 10714" transform="translate(-0.255 -0.183)" style="isolation: isolate">
      <g id="Group_10713" data-name="Group 10713" transform="translate(0 0)" clip-path="url(#clip-path-2)">
        <g id="Group_10712" data-name="Group 10712" transform="translate(0.255 0.183)" clip-path="url(#clip-path-3)">
          <g id="Group_10711" data-name="Group 10711" transform="translate(0)" clip-path="url(#clip-path-4)">
            <path id="Path_9951" data-name="Path 9951" d="M-5-1386H56.3v31.226H-5Z" transform="translate(4.399 1385.398)" fill="#4e008b"/>
          </g>
        </g>
      </g>
    </g>
  </g>
</svg>
