<svg width="24" height="24" viewBox="0 0 24 24" fill="none" xmlns="http://www.w3.org/2000/svg">
<path fill-rule="evenodd" clip-rule="evenodd" d="M16 6L8 6C5.79086 6 4 7.79086 4 10L4 14C4 16.2091 5.79086 18 8 18H16C18.2091 18 20 16.2091 20 14V10C20 7.79086 18.2091 6 16 6ZM8 4C4.68629 4 2 6.68629 2 10L2 14C2 17.3137 4.68629 20 8 20H16C19.3137 20 22 17.3137 22 14V10C22 6.68629 19.3137 4 16 4L8 4Z" fill="#0038FF"/>
<path fill-rule="evenodd" clip-rule="evenodd" d="M6.21913 9.3753C6.56414 8.94404 7.19343 8.87412 7.6247 9.21913L10.7506 11.7199C11.481 12.3042 12.519 12.3042 13.2494 11.7199L16.3753 9.21913C16.8066 8.87412 17.4359 8.94404 17.7809 9.3753C18.1259 9.80657 18.056 10.4359 17.6247 10.7809L14.4988 13.2816C13.0379 14.4503 10.9621 14.4503 9.50122 13.2816L6.37531 10.7809C5.94404 10.4359 5.87412 9.80657 6.21913 9.3753Z" fill="#0038FF"/>
</svg>
