<svg width="24" height="24" viewBox="0 0 24 24" fill="none" xmlns="http://www.w3.org/2000/svg">
<path fill-rule="evenodd" clip-rule="evenodd" d="M6 7.5C6 5.567 7.567 4 9.5 4H13.0633C13.36 4 13.6415 4.13182 13.8315 4.35982L17.7682 9.08392C17.918 9.26363 18 9.49016 18 9.7241V16.5C18 18.433 16.433 20 14.5 20H9.5C7.567 20 6 18.433 6 16.5L6 7.5ZM9.5 2C6.46243 2 4 4.46243 4 7.5L4 16.5C4 19.5376 6.46243 22 9.5 22H14.5C17.5376 22 20 19.5376 20 16.5V9.7241C20 9.02229 19.754 8.34269 19.3047 7.80355L15.3679 3.07945C14.7979 2.39547 13.9536 2 13.0633 2H9.5ZM12.9572 12.1354C12.6766 11.8164 12.368 11.4272 12.1872 11.0857C12.199 11.0508 12.214 11.0056 12.2312 10.952C12.274 10.8188 12.3308 10.6328 12.387 10.4214C12.4979 10.0043 12.6126 9.46666 12.6018 9.03944C12.5919 8.63578 12.5369 8.27728 12.3754 8.01691C12.2006 7.73514 11.92 7.59647 11.5438 7.60017C11.3569 7.60201 11.1917 7.64277 11.0549 7.73196C10.917 7.82194 10.8247 7.95031 10.7664 8.09779C10.6544 8.3804 10.6586 8.75572 10.7006 9.15445C10.7407 9.53353 10.8618 9.93785 10.9694 10.2413C11.0237 10.3943 11.0756 10.5245 11.1139 10.6167C11.1258 10.6451 11.1364 10.67 11.1453 10.6908L11.1192 10.7657C11.0859 10.8605 11.0373 10.996 10.9767 11.1586C10.8553 11.4842 10.686 11.9169 10.4936 12.3474C10.3004 12.7795 10.1383 13.1083 10.0248 13.3283C9.9681 13.4383 9.92355 13.5212 9.89338 13.5762L9.88467 13.592C9.84765 13.6046 9.7982 13.6216 9.73906 13.6428C9.60422 13.6911 9.41828 13.761 9.21387 13.8471C8.81233 14.0163 8.31317 14.259 8.00098 14.5368C7.71287 14.7931 7.48329 15.0419 7.37291 15.2942C7.31585 15.4246 7.28803 15.5616 7.3045 15.7031C7.32099 15.8447 7.38021 15.9758 7.4732 16.0966C7.66374 16.3441 8.04348 16.4508 8.44893 16.3767C8.86534 16.3006 9.33463 16.0344 9.76364 15.4963C10.172 14.9842 10.4688 14.5673 10.6641 14.2776C10.7617 14.1327 10.834 14.0196 10.8821 13.9422L10.9116 13.8944L11.0315 13.8631C11.1533 13.8314 11.3196 13.7882 11.4979 13.7423C11.8557 13.65 12.2582 13.5476 12.4474 13.504C12.6344 13.4607 12.8425 13.4218 13.0051 13.3935C13.0772 13.381 13.1399 13.3706 13.1873 13.363C13.2206 13.3925 13.2643 13.4303 13.3173 13.4739C13.4447 13.5789 13.6263 13.7184 13.8438 13.8571C14.2719 14.1299 14.8689 14.4188 15.4753 14.3975C16.0525 14.3772 16.3801 14.21 16.5522 13.9862C16.7211 13.7666 16.7015 13.5407 16.6964 13.4914L16.6963 13.4895C16.6905 13.433 16.6625 13.178 16.4255 12.9441C16.1867 12.7086 15.7704 12.5276 15.0592 12.5441C14.3721 12.56 13.9421 12.5888 13.6821 12.6141C13.5698 12.625 13.4888 12.6352 13.432 12.6436C13.4075 12.6189 13.3773 12.5883 13.3426 12.5525C13.2427 12.4495 13.1055 12.3041 12.9572 12.1354ZM15.0952 13.6189C14.8063 13.5678 14.4616 13.4288 14.1449 13.2241C14.3247 13.2056 14.5365 13.1899 14.747 13.1877C15.0174 13.185 15.2676 13.2052 15.4437 13.2609C15.5313 13.2886 15.5852 13.3206 15.6149 13.3493C15.6393 13.373 15.649 13.3952 15.649 13.4274C15.649 13.4851 15.6357 13.5198 15.6214 13.5416C15.607 13.5635 15.5833 13.5852 15.542 13.6033C15.4529 13.6423 15.3015 13.6554 15.0952 13.6189ZM11.5012 9.62217C11.4926 9.65372 11.4841 9.68466 11.4757 9.71482L11.4679 9.68913C11.393 9.43796 11.3344 9.13082 11.3344 8.84096C11.3344 8.54471 11.3853 8.38669 11.4322 8.30956C11.4737 8.24143 11.507 8.24149 11.5127 8.2415C11.5624 8.2415 11.5783 8.25084 11.5938 8.27075C11.6211 8.30587 11.6678 8.40719 11.6709 8.66601C11.6738 8.90772 11.5919 9.28603 11.5012 9.62217ZM11.8406 12.0146L11.8787 11.9144C12.0456 12.159 12.2334 12.3974 12.396 12.5929C12.4643 12.6749 12.5286 12.7501 12.5859 12.8157C12.4311 12.8451 12.2252 12.8878 11.9629 12.9492C11.7289 13.0038 11.5335 13.0594 11.3767 13.1093L11.4483 12.9561C11.5909 12.6514 11.7339 12.2938 11.8406 12.0146ZM8.53577 15.0251C8.75654 14.8658 9.00695 14.7148 9.22882 14.5982C9.1395 14.733 9.0357 14.8802 8.92353 15.0215C8.74738 15.2436 8.56042 15.4388 8.38524 15.5539C8.2067 15.6713 8.09321 15.6744 8.01426 15.6292C7.99091 15.6159 7.98311 15.6068 7.98152 15.6046C7.98106 15.5999 7.98216 15.5676 8.02551 15.5003C8.1115 15.3666 8.29596 15.1981 8.53577 15.0251Z" fill="#0038FF"/>
</svg>
