<svg width="25" height="24" viewBox="0 0 25 24" fill="none" xmlns="http://www.w3.org/2000/svg">
<path fill-rule="evenodd" clip-rule="evenodd" d="M16.6882 2.0181C18.051 1.88432 19.3891 2.48549 20.7017 3.7981C22.0143 5.11072 22.6155 6.44886 22.4817 7.81165C22.3531 9.12199 21.5641 10.1991 20.7017 11.0615L11.3715 20.3917L11.3598 20.4032C11.0827 20.6714 10.7239 20.903 10.3809 21.0754C10.0401 21.2467 9.63431 21.4001 9.24291 21.456L5.67897 21.9652L5.67388 21.9659C4.7658 22.0909 3.88853 21.8435 3.27043 21.2279C2.65094 20.6109 2.40144 19.733 2.53499 18.8192L2.5353 18.8171L3.04342 15.2602L3.04368 15.2584C3.09925 14.8622 3.25184 14.4537 3.42451 14.1101C3.59758 13.7658 3.83233 13.4042 4.10818 13.1284L13.4384 3.7981C14.3007 2.93572 15.3778 2.14672 16.6882 2.0181ZM16.8836 4.00853C16.2639 4.06935 15.6005 4.4644 14.8526 5.21231L5.5224 14.5426C5.44304 14.6219 5.32259 14.7872 5.21149 15.0083C5.10025 15.2296 5.03991 15.4242 5.02424 15.5366L5.02378 15.5398L4.51465 19.1038L4.51409 19.1076C4.45889 19.4837 4.57061 19.7001 4.68178 19.8108C4.7946 19.9232 5.0178 20.0367 5.39889 19.9849L5.40122 19.9846L8.96007 19.4761C9.06596 19.461 9.25816 19.4013 9.48271 19.2884C9.70125 19.1786 9.87311 19.0573 9.96432 18.9705L19.2875 9.64727C20.0354 8.89936 20.4304 8.23592 20.4913 7.61627C20.5469 7.04907 20.3429 6.26778 19.2875 5.21231C18.232 4.15684 17.4507 3.95286 16.8836 4.00853Z" fill="#0038FF"/>
<path fill-rule="evenodd" clip-rule="evenodd" d="M12.5376 4.8803C13.0694 4.73122 13.6213 5.04146 13.7704 5.57325C14.4692 8.06593 16.4204 10.0194 18.9293 10.7302C19.4606 10.8808 19.7693 11.4336 19.6188 11.9649C19.4682 12.4963 18.9154 12.805 18.3841 12.6545C15.2095 11.755 12.7325 9.28014 11.8447 6.1131C11.6956 5.58132 12.0058 5.02937 12.5376 4.8803Z" fill="#0038FF"/>
</svg>
