<svg width="24" height="24" viewBox="0 0 24 24" fill="none" xmlns="http://www.w3.org/2000/svg">
<path fill-rule="evenodd" clip-rule="evenodd" d="M8.5681 2C8.57873 2 8.58936 2.00001 8.6 2.00001L15.4319 2C15.6843 1.99997 15.9301 1.99994 16.1382 2.01695C16.3668 2.03563 16.6366 2.07969 16.908 2.21799C17.2843 2.40974 17.5903 2.7157 17.782 3.09202C17.9203 3.36345 17.9644 3.63318 17.9831 3.86178C18.0001 4.06994 18 4.31574 18 4.56812V5.43189C18 5.63038 18.0001 5.82479 17.9918 6.00003C18.4543 6.00028 18.8573 6.00298 19.195 6.03057C19.5904 6.06288 19.9836 6.13419 20.362 6.32699C20.9265 6.61461 21.3854 7.07355 21.673 7.63804C21.8658 8.01641 21.9371 8.40963 21.9694 8.80498C22 9.17954 22 9.6343 22 10.1614V14.8386C22 15.3657 22 15.8205 21.9694 16.195C21.9371 16.5904 21.8658 16.9836 21.673 17.362C21.3854 17.9265 20.9265 18.3854 20.362 18.673C19.9836 18.8658 19.5904 18.9371 19.195 18.9694C18.8593 18.9969 18.459 18.9997 18 19L18 19.4319C18 19.6843 18.0001 19.9301 17.9831 20.1382C17.9644 20.3668 17.9203 20.6366 17.782 20.908C17.5903 21.2843 17.2843 21.5903 16.908 21.782C16.6366 21.9203 16.3668 21.9644 16.1382 21.9831C15.9301 22.0001 15.6843 22 15.4319 22H8.56809C8.31571 22 8.06993 22.0001 7.86177 21.9831C7.63318 21.9644 7.36344 21.9203 7.09202 21.782C6.7157 21.5903 6.40974 21.2843 6.21799 20.908C6.07969 20.6366 6.03562 20.3668 6.01695 20.1382C5.99994 19.9301 5.99997 19.6843 6 19.4319L6 19C5.54097 18.9997 5.14075 18.9969 4.80497 18.9694C4.40963 18.9371 4.01641 18.8658 3.63803 18.673C3.07354 18.3854 2.6146 17.9265 2.32698 17.362C2.13419 16.9836 2.06287 16.5904 2.03057 16.195C1.99997 15.8205 1.99998 15.3657 2 14.8385L2 10.1615C1.99998 9.63431 1.99997 9.17955 2.03057 8.80498C2.06287 8.40963 2.13419 8.01641 2.32698 7.63803C2.6146 7.07355 3.07354 6.61461 3.63803 6.32699C4.01641 6.13419 4.40963 6.06288 4.80497 6.03057C5.14275 6.00298 5.54574 6.00028 6.00822 6.00003C5.99995 5.8248 5.99998 5.63039 6 5.4319C6 5.42128 6 5.41065 6 5.40001V4.60001C6 4.58936 6 4.57873 6 4.56811C5.99997 4.31572 5.99994 4.06993 6.01695 3.86178C6.03562 3.63318 6.07969 3.36345 6.21799 3.09202C6.40974 2.7157 6.7157 2.40974 7.09202 2.21799C7.36344 2.07969 7.63318 2.03563 7.86177 2.01695C8.06993 1.99994 8.31572 1.99997 8.5681 2ZM8.6 6.00001L15.4 6.00001C15.6965 6.00001 15.8588 5.99923 15.9754 5.9897C15.98 5.98932 15.9844 5.98894 15.9886 5.98856C15.9889 5.98441 15.9893 5.98001 15.9897 5.97537C15.9992 5.85879 16 5.69653 16 5.40001V4.60001C16 4.30348 15.9992 4.14122 15.9897 4.02464C15.9893 4.02 15.9889 4.0156 15.9886 4.01145C15.9844 4.01107 15.98 4.01069 15.9754 4.01031C15.8588 4.00078 15.6965 4.00001 15.4 4.00001L8.6 4.00001C8.30347 4.00001 8.14122 4.00078 8.02464 4.01031C8.01999 4.01069 8.0156 4.01107 8.01145 4.01145C8.01107 4.0156 8.01068 4.02 8.0103 4.02464C8.00078 4.14122 8 4.30348 8 4.60001V5.40001C8 5.69653 8.00078 5.85879 8.0103 5.97537C8.01068 5.98001 8.01107 5.98441 8.01145 5.98856C8.0156 5.98894 8.01999 5.98932 8.02464 5.9897C8.14122 5.99923 8.30347 6.00001 8.6 6.00001ZM8.5038 8.00001H6.2C5.62345 8.00001 5.25118 8.00078 4.96784 8.02393C4.69617 8.04613 4.59546 8.08381 4.54601 8.109C4.35785 8.20487 4.20487 8.35785 4.109 8.54601C4.0838 8.59546 4.04612 8.69618 4.02393 8.96784C4.00078 9.25118 4 9.62345 4 10.2L4 14.8C4 15.3766 4.00078 15.7488 4.02393 16.0322C4.04612 16.3038 4.0838 16.4046 4.109 16.454C4.20487 16.6422 4.35785 16.7951 4.54601 16.891C4.59546 16.9162 4.69617 16.9539 4.96784 16.9761C5.21698 16.9964 5.5349 16.9995 6 16.9999L6 16.5681C5.99997 16.3157 5.99994 16.0699 6.01695 15.8618C6.03562 15.6332 6.07969 15.3634 6.21799 15.092C6.40974 14.7157 6.7157 14.4097 7.09202 14.218C7.36344 14.0797 7.63318 14.0356 7.86177 14.0169C8.06994 13.9999 8.31573 14 8.56812 14L15.4319 14C15.6843 14 15.9301 13.9999 16.1382 14.0169C16.3668 14.0356 16.6366 14.0797 16.908 14.218C17.2843 14.4097 17.5903 14.7157 17.782 15.092C17.9203 15.3634 17.9644 15.6332 17.9831 15.8618C18.0001 16.0699 18 16.3157 18 16.5681L18 16.9999C18.4651 16.9995 18.783 16.9964 19.0322 16.9761C19.3038 16.9539 19.4045 16.9162 19.454 16.891C19.6422 16.7951 19.7951 16.6422 19.891 16.454C19.9162 16.4046 19.9539 16.3038 19.9761 16.0322C19.9992 15.7488 20 15.3766 20 14.8V10.2C20 9.62345 19.9992 9.25118 19.9761 8.96784C19.9539 8.69618 19.9162 8.59546 19.891 8.54601C19.7951 8.35785 19.6422 8.20487 19.454 8.109C19.4045 8.08381 19.3038 8.04613 19.0322 8.02393C18.7488 8.00078 18.3766 8.00001 17.8 8.00001H15.4962C15.4748 8.00001 15.4534 8.00001 15.4319 8.00001L8.6 8.00001C8.58936 8.00001 8.57873 8.00001 8.5681 8.00001C8.54662 8.00001 8.52518 8.00001 8.5038 8.00001ZM16 16.6C16 16.3035 15.9992 16.1412 15.9897 16.0246C15.9893 16.02 15.9889 16.0156 15.9886 16.0115C15.9844 16.0111 15.98 16.0107 15.9754 16.0103C15.8588 16.0008 15.6965 16 15.4 16H8.6C8.30347 16 8.14122 16.0008 8.02464 16.0103C8.01999 16.0107 8.0156 16.0111 8.01145 16.0115C8.01107 16.0156 8.01068 16.02 8.0103 16.0246C8.00078 16.1412 8 16.3035 8 16.6V19.4C8 19.6965 8.00078 19.8588 8.0103 19.9754C8.01068 19.98 8.01107 19.9844 8.01145 19.9885C8.0156 19.9889 8.02 19.9893 8.02464 19.9897C8.14122 19.9992 8.30347 20 8.6 20H15.4C15.6965 20 15.8588 19.9992 15.9754 19.9897C15.98 19.9893 15.9844 19.9889 15.9886 19.9885C15.9889 19.9844 15.9893 19.98 15.9897 19.9754C15.9992 19.8588 16 19.6965 16 19.4V16.6ZM6 11C6 10.4477 6.44772 10 7 10H7.01C7.56229 10 8.01 10.4477 8.01 11C8.01 11.5523 7.56229 12 7.01 12H7C6.44772 12 6 11.5523 6 11Z" fill="#0038FF"/>
</svg>
