<svg xmlns="http://www.w3.org/2000/svg" width="25.609" height="31.999" viewBox="0 0 25.609 31.999">
  <g id="Group_26" data-name="Group 26" transform="translate(-32)">
    <path id="Path_2152" data-name="Path 2152" d="M97.8,0A1.914,1.914,0,0,0,96,2V30a1.914,1.914,0,0,0,1.8,2h18.007a1.914,1.914,0,0,0,1.8-2V8L109.628.013Z" transform="translate(-60)" fill="#fff"/>
    <path id="Path_2153" data-name="Path 2153" d="M354,8h6l-8-8V6A2.006,2.006,0,0,0,354,8Z" transform="translate(-302.391)" fill="#b0b7bd"/>
    <path id="Path_2154" data-name="Path 2154" d="M390,134l-6-6h6Z" transform="translate(-332.391 -120)" fill="#cad1d8"/>
    <path id="Path_2155" data-name="Path 2155" d="M53.609,251a.957.957,0,0,1-.9,1H32.9a.957.957,0,0,1-.9-1V241a.957.957,0,0,1,.9-1H52.709a.957.957,0,0,1,.9,1Z" transform="translate(0 -225.001)" fill="#f15642"/>
    <g id="Group_25" data-name="Group 25" transform="translate(35.524 18.394)">
      <path id="Path_2156" data-name="Path 2156" d="M101.744,294.872a.55.55,0,0,1,.543-.552h1.847a2,2,0,0,1,0,4H102.8v1.056a.5.5,0,0,1-.512.551.539.539,0,0,1-.543-.551Zm1.055.455v1.992h1.335a1,1,0,0,0,0-1.992Z" transform="translate(-101.744 -294.32)" fill="#fff"/>
      <path id="Path_2157" data-name="Path 2157" d="M188.376,301a.5.5,0,0,1-.552-.495v-4.542a.544.544,0,0,1,.552-.5h1.831c3.654,0,3.574,5.533.072,5.533Zm.5-4.557v3.582h1.327c2.159,0,2.255-3.582,0-3.582Z" transform="translate(-182.444 -295.4)" fill="#fff"/>
      <path id="Path_2158" data-name="Path 2158" d="M288.182,296.5v1.271h2.039a.618.618,0,0,1,.576.567.556.556,0,0,1-.576.48h-2.039v1.679a.474.474,0,0,1-.479.5.508.508,0,0,1-.567-.5v-4.542a.505.505,0,0,1,.567-.5h2.807a.5.5,0,0,1,.56.5.552.552,0,0,1-.56.544h-2.328Z" transform="translate(-275.549 -295.385)" fill="#fff"/>
    </g>
    <path id="Path_2159" data-name="Path 2159" d="M112.729,417H96v1h16.729a.949.949,0,0,0,.88-1v-1A.949.949,0,0,1,112.729,417Z" transform="translate(-60 -390.001)" fill="#cad1d8"/>
  </g>
</svg>
