<svg id="upload-to-cloud" xmlns="http://www.w3.org/2000/svg" width="42.38" height="26.53" viewBox="0 0 42.38 26.53">
  <path id="Path_2616" data-name="Path 2616" d="M32.7,42.114c-.4-4.871-5.417-8.736-11.531-8.736S10.037,37.244,9.642,42.117C4.175,42.674,0,46.446,0,50.972c0,4.927,4.95,8.936,11.035,8.936H27.817a.716.716,0,1,0,0-1.4H11.035c-5.132,0-9.306-3.381-9.306-7.536,0-4,3.866-7.3,8.8-7.515a.785.785,0,0,0,.818-.7c0-.014,0-.028,0-.041.013-4.379,4.416-7.939,9.827-7.939S30.99,38.338,31,42.719c0,.014,0,.028,0,.038a.785.785,0,0,0,.821.7c4.952.2,8.83,3.5,8.83,7.516a7.069,7.069,0,0,1-3.438,5.849.614.614,0,0,0-.125.985,1.009,1.009,0,0,0,1.216.1,8.381,8.381,0,0,0,4.076-6.935C42.38,46.432,38.191,42.659,32.7,42.114Z" transform="translate(0 -33.378)" fill="#ff375e"/>
  <path id="Path_2617" data-name="Path 2617" d="M140.966,135.778V144.7a.884.884,0,0,0,1.729,0v-8.926a.884.884,0,0,0-1.729,0Z" transform="translate(-120.657 -123.213)" fill="#ff375e"/>
  <path id="Path_2618" data-name="Path 2618" d="M117.4,111.291a.975.975,0,0,0,.611-.205.61.61,0,0,0,0-.99l-4.944-4a1.014,1.014,0,0,0-1.222,0l-4.944,4a.61.61,0,0,0,0,.99,1.014,1.014,0,0,0,1.222,0l4.333-3.509,4.333,3.509A.975.975,0,0,0,117.4,111.291Z" transform="translate(-91.284 -97.428)" fill="#ff375e"/>
</svg>
