<svg width="20" height="20" viewBox="0 0 20 20" fill="none" xmlns="http://www.w3.org/2000/svg">
<path d="M9.99998 7.50008C11.6108 7.50008 12.9166 6.19425 12.9166 4.58341C12.9166 2.97258 11.6108 1.66675 9.99998 1.66675C8.38915 1.66675 7.08331 2.97258 7.08331 4.58341C7.08331 6.19425 8.38915 7.50008 9.99998 7.50008Z" stroke="#1D252D" stroke-width="1.5" stroke-linejoin="round"/>
<path d="M1.66669 17.0834C1.66669 13.4015 5.02456 10.4167 9.16669 10.4167" stroke="#1D252D" stroke-width="1.5" stroke-linejoin="round"/>
<path d="M14.8047 15.0129C15.6624 15.0129 16.3576 14.3177 16.3576 13.4601C16.3576 12.6025 15.6624 11.9072 14.8047 11.9072C13.9471 11.9072 13.2519 12.6025 13.2519 13.4601C13.2519 14.3177 13.9471 15.0129 14.8047 15.0129Z" stroke="#1D252D" stroke-width="1.5"/>
<path d="M14.8047 17.0834V15.0129" stroke="#1D252D" stroke-width="1.5" stroke-linejoin="round"/>
<path d="M14.8047 11.9071V9.83667" stroke="#1D252D" stroke-width="1.5" stroke-linejoin="round"/>
<path d="M11.6667 15.2716L13.4598 14.2363" stroke="#1D252D" stroke-width="1.5" stroke-linejoin="round"/>
<path d="M16.1494 12.6837L17.9424 11.6484" stroke="#1D252D" stroke-width="1.5" stroke-linejoin="round"/>
<path d="M11.6667 11.6484L13.4598 12.6837" stroke="#1D252D" stroke-width="1.5" stroke-linejoin="round"/>
<path d="M16.1494 14.2363L17.9424 15.2716" stroke="#1D252D" stroke-width="1.5" stroke-linejoin="round"/>
</svg>
