<svg width="24" height="24" viewBox="0 0 24 24" fill="none" xmlns="http://www.w3.org/2000/svg">
<rect x="23.5" y="23.5" width="23" height="23" rx="11.5" transform="rotate(-180 23.5 23.5)" fill="white"/>
<rect x="23.5" y="23.5" width="23" height="23" rx="11.5" transform="rotate(-180 23.5 23.5)" stroke="#DEE0E2"/>
<path d="M14.2028 11.5394L10.6653 8.00812C10.6072 7.94954 10.5381 7.90304 10.4619 7.87131C10.3858 7.83958 10.3041 7.82324 10.2216 7.82324C10.1391 7.82324 10.0574 7.83958 9.9812 7.87131C9.90504 7.90304 9.83592 7.94954 9.77781 8.00812C9.66141 8.12522 9.59607 8.28362 9.59607 8.44874C9.59607 8.61386 9.66141 8.77226 9.77781 8.88937L12.8716 12.0144L9.77781 15.1081C9.66141 15.2252 9.59607 15.3836 9.59607 15.5487C9.59607 15.7139 9.66141 15.8723 9.77781 15.9894C9.8357 16.0484 9.90473 16.0954 9.9809 16.1276C10.0571 16.1598 10.1389 16.1765 10.2216 16.1769C10.3043 16.1765 10.3861 16.1598 10.4622 16.1276C10.5384 16.0954 10.6074 16.0484 10.6653 15.9894L14.2028 12.4581C14.2663 12.3996 14.3169 12.3286 14.3515 12.2495C14.3861 12.1704 14.404 12.0851 14.404 11.9987C14.404 11.9124 14.3861 11.8271 14.3515 11.748C14.3169 11.6689 14.2663 11.5979 14.2028 11.5394Z" fill="#1D252D"/>
</svg>
