<svg width="64" height="48" viewBox="0 0 64 48" fill="none" xmlns="http://www.w3.org/2000/svg">
<path d="M32.026 28.962C33.6678 29.0503 35.2944 28.6086 36.666 27.702V23.166C35.7842 23.7335 34.7535 24.0259 33.705 24.006C32.912 24.0637 32.126 23.8241 31.5 23.334C31.2545 23.0462 31.0693 22.712 30.9554 22.3513C30.8416 21.9905 30.8013 21.6106 30.837 21.234V2H25V7.67H36.665V13.046H25V22.579C24.9632 23.4189 25.097 24.2575 25.3931 25.0443C25.6892 25.8311 26.1416 26.5498 26.723 27.157C28.1898 28.4215 30.0893 29.0688 32.023 28.963M50.123 28.963C51.4641 28.9993 52.7993 28.7707 54.0519 28.2902C55.3046 27.8097 56.4501 27.0869 57.423 26.163C58.657 24.9723 59.5473 23.471 60 21.817L54.976 20.138C54.7436 20.9909 54.2835 21.7646 53.645 22.376C53.1755 22.8201 52.6225 23.1667 52.0181 23.3957C51.4137 23.6247 50.7699 23.7315 50.124 23.71C49.4163 23.7156 48.7145 23.5815 48.0587 23.3156C47.4028 23.0496 46.8059 22.6569 46.302 22.16C45.2151 20.9458 44.645 19.3552 44.713 17.727C44.6365 16.0978 45.2069 14.5045 46.3 13.294C46.7978 12.8038 47.3885 12.418 48.0374 12.1592C48.6864 11.9004 49.3805 11.7738 50.079 11.787C50.7029 11.7577 51.3261 11.8573 51.9099 12.0794C52.4936 12.3015 53.0254 12.6414 53.472 13.078C54.0784 13.7238 54.5202 14.5062 54.76 15.359L59.87 13.637C59.4479 12.0346 58.6215 10.5675 57.47 9.376C56.4703 8.42221 55.2914 7.6762 54.0014 7.18116C52.7115 6.68612 51.3361 6.45188 49.955 6.492C48.516 6.47578 47.088 6.74512 45.7538 7.28444C44.4196 7.82377 43.2055 8.62236 42.182 9.634C40.0928 11.8051 38.9486 14.7154 39 17.728C38.9791 19.2258 39.2567 20.7129 39.8168 22.1022C40.3769 23.4916 41.2081 24.7554 42.262 25.82C43.3 26.8361 44.5288 27.6369 45.8776 28.1761C47.2264 28.7154 48.6685 28.9825 50.121 28.962M12.962 28.962C15.4287 29.0712 17.8393 28.2056 19.673 26.552C20.2621 25.9574 20.727 25.2516 21.0407 24.4756C21.3543 23.6996 21.5105 22.8689 21.5 22.032C21.5103 21.2513 21.3654 20.4764 21.0735 19.7523C20.7817 19.0282 20.3488 18.3693 19.8 17.814C18.514 16.584 16.8848 15.7736 15.128 15.49L11.857 14.844C10.5 14.586 9.734 13.9 9.734 12.95C9.734 11.702 10.923 10.841 12.834 10.841C13.3627 10.8199 13.8903 10.9041 14.3861 11.0888C14.8819 11.2736 15.336 11.5551 15.722 11.917C16.166 12.4084 16.4477 13.0247 16.529 13.682L21.244 12.606C21.1005 11.2471 20.483 9.98215 19.5 9.033C18.6038 8.18856 17.5495 7.52948 16.3979 7.09359C15.2462 6.6577 14.0198 6.4536 12.789 6.493C10.4997 6.4233 8.26882 7.22289 6.545 8.731C5.90935 9.32633 5.40358 10.0466 5.05941 10.8466C4.71525 11.6466 4.54012 12.5091 4.545 13.38C4.52057 14.109 4.64338 14.8354 4.9061 15.5158C5.16881 16.1962 5.56603 16.8166 6.074 17.34C7.31996 18.4998 8.86434 19.2896 10.534 19.621L13.762 20.396C15.376 20.783 16.098 21.386 16.098 22.462C16.098 23.796 14.909 24.571 12.955 24.571C12.3533 24.5987 11.7523 24.5022 11.1896 24.2875C10.6268 24.0728 10.1143 23.7445 9.684 23.323C9.16621 22.7904 8.86349 22.0852 8.834 21.343L4 22.42C4.14366 23.8583 4.7903 25.1997 5.826 26.208C6.76776 27.1253 7.88559 27.8423 9.11204 28.3158C10.3385 28.7893 11.6481 29.0085 12.962 28.962Z" fill="#4F008C"/>
<path d="M43.71 38.5C44.4367 38.5 45.01 38.7 45.43 39.1C45.85 39.4933 46.06 40.0233 46.06 40.69C46.06 41.3633 45.85 41.9033 45.43 42.31C45.0167 42.7167 44.4467 42.92 43.72 42.92H42.29V46H40.55V38.5H43.71ZM43.54 41.52C43.8067 41.52 44.0033 41.4433 44.13 41.29C44.2633 41.1367 44.33 40.9433 44.33 40.71C44.33 40.4767 44.2667 40.2833 44.14 40.13C44.0133 39.9767 43.82 39.9 43.56 39.9H42.29V41.52H43.54ZM49.9502 38.5C50.6769 38.5 51.2502 38.7 51.6702 39.1C52.0902 39.4933 52.3002 40.0233 52.3002 40.69C52.3002 41.3633 52.0902 41.9033 51.6702 42.31C51.2569 42.7167 50.6869 42.92 49.9602 42.92H48.5302V46H46.7902V38.5H49.9502ZM49.7802 41.52C50.0469 41.52 50.2436 41.4433 50.3702 41.29C50.5036 41.1367 50.5702 40.9433 50.5702 40.71C50.5702 40.4767 50.5069 40.2833 50.3802 40.13C50.2536 39.9767 50.0602 39.9 49.8002 39.9H48.5302V41.52H49.7802ZM55.9686 46.14C55.0353 46.14 54.2886 45.9033 53.7286 45.43C53.1753 44.95 52.8819 44.2967 52.8486 43.47H54.5786C54.5986 43.8633 54.7353 44.1733 54.9886 44.4C55.2419 44.62 55.5819 44.73 56.0086 44.73C56.3686 44.73 56.6586 44.6467 56.8786 44.48C57.1053 44.3133 57.2186 44.0967 57.2186 43.83C57.2186 43.51 57.1019 43.2767 56.8686 43.13C56.6419 42.9833 56.2453 42.8867 55.6786 42.84C54.8253 42.7667 54.1786 42.5467 53.7386 42.18C53.2986 41.8067 53.0786 41.2933 53.0786 40.64C53.0786 39.9533 53.3286 39.4033 53.8286 38.99C54.3286 38.57 54.9886 38.36 55.8086 38.36C56.6886 38.36 57.3819 38.57 57.8886 38.99C58.4019 39.4033 58.6819 39.9933 58.7286 40.76H57.0186C56.9453 40.0867 56.5486 39.75 55.8286 39.75C55.5019 39.75 55.2419 39.8233 55.0486 39.97C54.8553 40.11 54.7586 40.3 54.7586 40.54C54.7586 40.8467 54.8719 41.07 55.0986 41.21C55.3319 41.3433 55.7353 41.4267 56.3086 41.46C58.0353 41.5733 58.8986 42.3233 58.8986 43.71C58.8986 44.4567 58.6319 45.05 58.0986 45.49C57.5719 45.9233 56.8619 46.14 55.9686 46.14Z" fill="#4F008C"/>
</svg>
