<svg width="24" height="24" viewBox="0 0 24 24" fill="none" xmlns="http://www.w3.org/2000/svg">
<path d="M15.1486 9.38867C15.1486 9.38867 13.5339 13.9398 12.7667 14.7344C11.9994 15.5289 10.7332 15.551 9.93869 14.7837C9.14409 14.0164 9.12199 12.7503 9.88929 11.9557C10.6566 11.1612 15.1486 9.38867 15.1486 9.38867Z" stroke="#8E9AA0" stroke-width="1.5" stroke-linejoin="bevel"/>
<path d="M19.4246 19.4246C21.3248 17.5245 22.5 14.8995 22.5 12C22.5 6.201 17.799 1.5 12 1.5C6.201 1.5 1.5 6.201 1.5 12C1.5 14.8995 2.67525 17.5245 4.57538 19.4246" stroke="#8E9AA0" stroke-width="1.5" stroke-linejoin="bevel"/>
<path d="M12 2V4" stroke="#8E9AA0" stroke-width="1.5" stroke-linejoin="bevel"/>
<path d="M19.4227 5.57031L17.8684 6.82891" stroke="#8E9AA0" stroke-width="1.5" stroke-linejoin="bevel"/>
<path d="M21.2612 13.6159L19.3124 13.166" stroke="#8E9AA0" stroke-width="1.5" stroke-linejoin="bevel"/>
<path d="M2.73868 13.6159L4.68742 13.166" stroke="#8E9AA0" stroke-width="1.5" stroke-linejoin="bevel"/>
<path d="M4.5773 5.57031L6.13159 6.82896" stroke="#8E9AA0" stroke-width="1.5" stroke-linejoin="bevel"/>
</svg>
