<svg width="24" height="24" viewBox="0 0 24 24" fill="none" xmlns="http://www.w3.org/2000/svg">
<g id="bell">
<path id="Union" fill-rule="evenodd" clip-rule="evenodd" d="M16.7272 8.81481V10.1781C16.7272 11.5462 17.1005 12.8894 17.8083 14.0593C18.3429 14.9431 17.6868 16 16.7687 16H7.23128C6.31324 16 5.65714 14.9431 6.19174 14.0593C6.89945 12.8894 7.27282 11.5462 7.27282 10.1781V8.81481C7.27282 6.13118 9.41358 4 12 4C14.5864 4 16.7272 6.13118 16.7272 8.81481ZM5.27282 10.1781C5.27282 11.1826 4.9986 12.1676 4.48048 13.0241C3.16316 15.2018 4.71007 18 7.23128 18H16.7687C19.2899 18 20.8368 15.2018 19.5195 13.0241C19.0014 12.1676 18.7272 11.1826 18.7272 10.1781V8.81481C18.7272 5.05109 15.7153 2 12 2C8.28468 2 5.27282 5.05109 5.27282 8.81481V10.1781ZM8.87246 21.3297C8.07786 20.9615 8.43485 20 9.31063 20H14.6897C15.5655 20 15.9225 20.9615 15.1279 21.3297C14.208 21.756 13.1397 22 12.0002 22C10.8606 22 9.79234 21.756 8.87246 21.3297Z" fill="#72788E"/>
</g>
</svg>
