<svg width="32" height="32" viewBox="0 0 32 32" fill="none" xmlns="http://www.w3.org/2000/svg">
<circle cx="16" cy="16" r="13" fill="#F6F8FA"/>
<path fill-rule="evenodd" clip-rule="evenodd" d="M12.0485 10.3515C11.5799 9.88284 10.8201 9.88284 10.3515 10.3515C9.88284 10.8201 9.88284 11.5799 10.3515 12.0485L14.3029 16L10.3515 19.9515C9.88284 20.4201 9.88284 21.1799 10.3515 21.6485C10.8201 22.1172 11.5799 22.1172 12.0485 21.6485L16 17.6971L19.9515 21.6485C20.4201 22.1172 21.1799 22.1172 21.6485 21.6485C22.1172 21.1799 22.1172 20.4201 21.6485 19.9515L17.6971 16L21.6485 12.0485C22.1172 11.5799 22.1172 10.8201 21.6485 10.3515C21.1799 9.88284 20.4201 9.88284 19.9515 10.3515L16 14.3029L12.0485 10.3515Z" fill="#72788E"/>
</svg>
