<svg width="24" height="24" viewBox="0 0 24 24" fill="none" xmlns="http://www.w3.org/2000/svg">
<g id="files/documentStatus">
<path id="Union" fill-rule="evenodd" clip-rule="evenodd" d="M4 7.5C4 5.567 5.567 4 7.5 4H11.0633C11.36 4 11.6415 4.13182 11.8315 4.35982L13.1553 5.94843C13.1767 5.98163 13.2003 6.01392 13.2261 6.04511L14.3096 7.3556C14.6615 7.78125 15.2918 7.84101 15.7175 7.4891C16.1431 7.13718 16.2029 6.50685 15.851 6.0812L15.7838 6H15.8017L13.3679 3.07945C12.7979 2.39547 11.9536 2 11.0633 2H7.5C4.46243 2 2 4.46243 2 7.5V16.5C2 19.5376 4.46243 22 7.5 22C8.05228 22 8.5 21.5523 8.5 21C8.5 20.4477 8.05228 20 7.5 20C5.567 20 4 18.433 4 16.5V7.5ZM15.5 11C13.0147 11 11 13.0147 11 15.5C11 17.9853 13.0147 20 15.5 20C17.9853 20 20 17.9853 20 15.5C20 13.0147 17.9853 11 15.5 11ZM9 15.5C9 11.9101 11.9101 9 15.5 9C19.0899 9 22 11.9101 22 15.5C22 19.0899 19.0899 22 15.5 22C11.9101 22 9 19.0899 9 15.5ZM15.5703 13.0701C16.1226 13.0701 16.5703 13.5178 16.5703 14.0701V15.6559L17.1371 16.2226C17.5276 16.6131 17.5276 17.2463 17.1371 17.6368C16.7465 18.0274 16.1134 18.0274 15.7229 17.6368L14.8632 16.7772C14.6757 16.5896 14.5703 16.3353 14.5703 16.0701V14.0701C14.5703 13.5178 15.018 13.0701 15.5703 13.0701Z" fill="#72788E"/>
</g>
</svg>
