<svg width="24" height="25" viewBox="0 0 24 25" fill="none" xmlns="http://www.w3.org/2000/svg">
<g id="interface/eye">
<path id="Vector" fill-rule="evenodd" clip-rule="evenodd" d="M5.90367 6.93691L3.37346 9.24355C1.54218 10.913 1.54218 14.087 3.37346 15.7564L5.90367 18.0631C9.4678 21.3123 14.5322 21.3123 18.0963 18.0631L20.6265 15.7564C22.4578 14.087 22.4578 10.913 20.6265 9.24355L18.0963 6.93691C14.5322 3.6877 9.4678 3.6877 5.90367 6.93691ZM17 12.5C17 15.2614 14.7614 17.5 12 17.5C9.23858 17.5 7 15.2614 7 12.5C7 9.73858 9.23858 7.5 12 7.5C14.7614 7.5 17 9.73858 17 12.5ZM14 12.5C14.3597 12.5 14.6972 12.4051 14.9888 12.2389C14.9962 12.3249 15 12.412 15 12.5C15 14.1569 13.6569 15.5 12 15.5C10.3431 15.5 9 14.1569 9 12.5C9 10.8431 10.3431 9.5 12 9.5C12.088 9.5 12.1751 9.50379 12.2611 9.51121C12.0949 9.80283 12 10.1403 12 10.5C12 11.6046 12.8954 12.5 14 12.5Z" fill="#0038FF"/>
</g>
</svg>
