<svg width="24" height="24" viewBox="0 0 24 24" fill="none" xmlns="http://www.w3.org/2000/svg">
<g id="Frame">
<path id="Vector" d="M12 9C13.933 9 15.5 7.433 15.5 5.5C15.5 3.567 13.933 2 12 2C10.067 2 8.5 3.567 8.5 5.5C8.5 7.433 10.067 9 12 9Z" stroke="#00C48C" stroke-width="1.5" stroke-linejoin="round"/>
<path id="Vector_2" d="M2 20.5C2 16.0817 6.02945 12.5 11 12.5" stroke="#00C48C" stroke-width="1.5" stroke-linejoin="round"/>
<g id="Group 1261154003">
<path id="Vector_3" d="M17.7657 18.0149C18.7948 18.0149 19.6291 17.1807 19.6291 16.1515C19.6291 15.1224 18.7948 14.2881 17.7657 14.2881C16.7365 14.2881 15.9022 15.1224 15.9022 16.1515C15.9022 17.1807 16.7365 18.0149 17.7657 18.0149Z" stroke="#00C48C" stroke-width="1.5"/>
<path id="Vector_4" d="M17.7657 20.4992V18.0146" stroke="#00C48C" stroke-width="1.5" stroke-linejoin="round"/>
<path id="Vector_5" d="M17.7657 14.2883V11.8037" stroke="#00C48C" stroke-width="1.5" stroke-linejoin="round"/>
<path id="Vector_6" d="M14 18.3253L16.1517 17.083" stroke="#00C48C" stroke-width="1.5" stroke-linejoin="round"/>
<path id="Vector_7" d="M19.3792 15.2198L21.5309 13.9775" stroke="#00C48C" stroke-width="1.5" stroke-linejoin="round"/>
<path id="Vector_8" d="M14 13.9775L16.1517 15.2198" stroke="#00C48C" stroke-width="1.5" stroke-linejoin="round"/>
<path id="Vector_9" d="M19.3792 17.083L21.5309 18.3253" stroke="#00C48C" stroke-width="1.5" stroke-linejoin="round"/>
</g>
</g>
</svg>
