<svg width="24" height="24" viewBox="0 0 24 24" fill="none" xmlns="http://www.w3.org/2000/svg">
<g id="home">
<g id="Subtract">
<mask id="path-1-inside-1_340_32751" fill="white">
<path d="M4.37277 6.25624L8.37277 3.22055C10.5171 1.59315 13.4829 1.59315 15.6272 3.22055L19.6272 6.25624C21.122 7.39068 22 9.15915 22 11.0357V15.9706C22 19.2843 19.3137 21.9706 16 21.9706H8C4.68629 21.9706 2 19.2843 2 15.9706V11.0357C2 9.15915 2.87796 7.39068 4.37277 6.25624Z"/>
</mask>
<path d="M8.37277 3.22055L7.16369 1.6274V1.6274L8.37277 3.22055ZM4.37277 6.25624L5.58184 7.84939H5.58184L4.37277 6.25624ZM19.6272 6.25624L18.4182 7.84939L19.6272 6.25624ZM15.6272 3.22055L16.8363 1.62739V1.62739L15.6272 3.22055ZM7.16369 1.6274L3.16369 4.66309L5.58184 7.84939L9.58184 4.8137L7.16369 1.6274ZM0 11.0357V15.9706H4V11.0357H0ZM8 23.9706H16V19.9706H8V23.9706ZM24 15.9706V11.0357H20V15.9706H24ZM20.8363 4.66308L16.8363 1.62739L14.4182 4.8137L18.4182 7.84939L20.8363 4.66308ZM24 11.0357C24 8.53363 22.8294 6.17568 20.8363 4.66308L18.4182 7.84939C19.4147 8.60568 20 9.78466 20 11.0357H24ZM16 23.9706C20.4183 23.9706 24 20.3888 24 15.9706H20C20 18.1797 18.2091 19.9706 16 19.9706V23.9706ZM0 15.9706C0 20.3888 3.58172 23.9706 8 23.9706V19.9706C5.79086 19.9706 4 18.1797 4 15.9706H0ZM3.16369 4.66309C1.17061 6.17568 0 8.53363 0 11.0357H4C4 9.78466 4.58531 8.60568 5.58184 7.84939L3.16369 4.66309ZM9.58184 4.8137C11.0114 3.72877 12.9886 3.72877 14.4182 4.8137L16.8363 1.62739C13.9772 -0.542466 10.0228 -0.542464 7.16369 1.6274L9.58184 4.8137Z" fill="#272424" mask="url(#path-1-inside-1_340_32751)"/>
</g>
<path id="Vector 87" d="M12 14.532V17.032" stroke="#272424" stroke-width="2" stroke-linecap="round"/>
</g>
</svg>
