<svg width="48" height="48" viewBox="0 0 48 48" fill="none" xmlns="http://www.w3.org/2000/svg">
<g id="Frame">
<path id="Vector" d="M29 6H15.744C14.781 6 14 6.781 14 7.744V15.003H29V6Z" fill="#169154"/>
<path id="Vector_2" d="M14 33.0547V40.2567C14 41.2197 14.781 42.0007 15.743 42.0007H29V33.0547H14Z" fill="#18482A"/>
<path id="Vector_3" d="M14 15.0039H29V24.0059H14V15.0039Z" fill="#0C8045"/>
<path id="Vector_4" d="M14 24.0039H29V33.0539H14V24.0039Z" fill="#17472A"/>
<g id="Group">
<path id="Vector_5" d="M42.256 6H29V15.003H44V7.744C44 6.781 43.219 6 42.256 6Z" fill="#29C27F"/>
<path id="Vector_6" d="M29 33.0547V42.0007H42.257C43.219 42.0007 44 41.2197 44 40.2577V33.0557L29 33.0547Z" fill="#27663F"/>
<path id="Vector_7" d="M29 15.0039H44V24.0059H29V15.0039Z" fill="#19AC65"/>
<path id="Vector_8" d="M29 24.0039H44V33.0539H29V24.0039Z" fill="#129652"/>
</g>
<path id="Vector_9" d="M22.319 34H5.681C4.753 34 4 33.247 4 32.319V15.681C4 14.753 4.753 14 5.681 14H22.319C23.247 14 24 14.753 24 15.681V32.319C24 33.247 23.247 34 22.319 34Z" fill="#0C7238"/>
<path id="Vector_10" d="M9.80444 19H12.1904L14.1264 22.754L16.1724 19H18.4014L15.3304 24L18.4714 29H16.1204L14.0104 25.07L11.9094 29H9.52344L12.7164 23.982L9.80444 19Z" fill="white"/>
</g>
</svg>
