<svg width="146" height="144" viewBox="0 0 146 144" fill="none" xmlns="http://www.w3.org/2000/svg">
<path d="M136 68.3542C136 73.6667 135.292 78.9792 134.229 83.9375C133.521 87.125 132.458 89.9583 131.396 92.7917C124.667 110.5 110.5 124.667 92.7917 131.396C91.375 131.75 90.3125 132.458 88.8958 132.812C82.1667 134.937 75.4375 136 68 136C30.4583 136 0 105.542 0 68C0 30.4583 30.4583 0 68 0C105.542 0.354167 136 30.8125 136 68.3542Z" fill="url(#paint0_linear_643_8296)"/>
<path d="M100.359 126.62L88.1657 143.972L63.3105 111.144L68.4692 96.8848L100.359 126.62Z" fill="url(#paint1_linear_643_8296)"/>
<rect x="59.0898" y="96.6064" width="15.9448" height="15.9448" rx="7.97241" fill="url(#paint2_linear_643_8296)"/>
<path d="M145.487 84.5626C144.778 87.396 143.716 90.2293 142.653 93.0627C135.924 110.063 122.466 123.521 105.466 130.25L67.2158 90.5102V21.5723L72.2206 23.4481L145.132 79.2501L145.487 84.5626Z" fill="url(#paint3_linear_643_8296)"/>
<rect x="59.0898" y="21.5723" width="15.9448" height="69.4069" rx="7.97241" fill="url(#paint4_linear_643_8296)"/>
<defs>
<linearGradient id="paint0_linear_643_8296" x1="31.4656" y1="12.5616" x2="106.314" y2="126.552" gradientUnits="userSpaceOnUse">
<stop stop-color="#FBF1E0"/>
<stop offset="1" stop-color="#F67C0D"/>
</linearGradient>
<linearGradient id="paint1_linear_643_8296" x1="75.4749" y1="80.1452" x2="104.03" y2="108.701" gradientUnits="userSpaceOnUse">
<stop stop-color="#FFA757"/>
<stop offset="1" stop-color="#F67C0D" stop-opacity="0"/>
</linearGradient>
<linearGradient id="paint2_linear_643_8296" x1="71.2786" y1="107.578" x2="62.671" y2="101" gradientUnits="userSpaceOnUse">
<stop offset="0.0113208" stop-color="#FFEEC2"/>
<stop offset="1" stop-color="white"/>
</linearGradient>
<linearGradient id="paint3_linear_643_8296" x1="-64.7174" y1="39.8619" x2="114.347" y2="93.6941" gradientUnits="userSpaceOnUse">
<stop stop-color="#FFA757"/>
<stop offset="1" stop-color="#F67C0D" stop-opacity="0"/>
</linearGradient>
<linearGradient id="paint4_linear_643_8296" x1="71.2786" y1="69.3296" x2="58.0524" y2="67.0077" gradientUnits="userSpaceOnUse">
<stop offset="0.0113208" stop-color="#FFEEC2"/>
<stop offset="1" stop-color="white"/>
</linearGradient>
</defs>
</svg>
