<svg width="24" height="24" viewBox="0 0 24 24" fill="none" xmlns="http://www.w3.org/2000/svg">
<g id="Moon">
<path id="Vector" fill-rule="evenodd" clip-rule="evenodd" d="M19.4847 14.9979C18.8441 15.1343 18.18 15.206 17.5 15.206C12.2533 15.206 8 10.9527 8 5.70598C8 5.46979 8.00866 5.23549 8.02567 5.00339C5.62055 6.38308 4 8.97742 4 11.9484C4 16.3667 7.58172 19.9484 12 19.9484C15.4701 19.9484 18.3544 17.9254 19.4847 14.9979ZM19.9767 12.7874C19.2013 13.0586 18.3679 13.206 17.5 13.206C13.3579 13.206 10 9.84811 10 5.70598C10 5.17628 10.0549 4.65941 10.1594 4.16075C10.1702 4.10907 10.1815 4.0576 10.1934 4.00632C10.3066 3.51797 10.6708 2.60126 10.6708 2.60126L10.6817 2.57654C10.795 2.31997 10.5746 2.04138 10.2988 2.09253C10.2988 2.09253 9.31143 2.30105 8.83969 2.45807C8.73626 2.4925 8.63358 2.52857 8.53168 2.56625C4.71838 3.97642 2 7.64496 2 11.9484C2 17.4713 6.47715 21.9484 12 21.9484C16.847 21.9484 20.8864 18.7048 21.8025 14.1776C21.8181 14.1001 21.8329 14.0222 21.8468 13.9439C21.9161 13.5517 21.9773 12.7751 21.9875 12.6426C21.9885 12.6294 21.989 12.6165 21.989 12.6033C21.989 12.2426 21.6039 12.0127 21.2864 12.1838L21.2295 12.2144C21.2295 12.2144 20.4767 12.6054 20.0745 12.7524C20.042 12.7643 20.0094 12.776 19.9767 12.7874Z" fill="#72788E"/>
</g>
</svg>
