<svg width="21" height="20" viewBox="0 0 21 20" fill="none" xmlns="http://www.w3.org/2000/svg">
<path fill-rule="evenodd" clip-rule="evenodd" d="M8.90039 3.5C8.90039 5.433 7.33339 7 5.40039 7C3.46739 7 1.90039 5.433 1.90039 3.5C1.90039 1.567 3.46739 0 5.40039 0C7.33339 0 8.90039 1.567 8.90039 3.5ZM5.40039 5C6.22882 5 6.90039 4.32843 6.90039 3.5C6.90039 2.67157 6.22882 2 5.40039 2C4.57196 2 3.90039 2.67157 3.90039 3.5C3.90039 4.32843 4.57196 5 5.40039 5Z" fill="#72788E"/>
<path d="M6.40039 9C6.40039 8.44772 5.95268 8 5.40039 8H4.21857C2.10985 8 0.400391 9.70946 0.400391 11.8182C0.400391 13.0232 1.37722 14 2.58221 14H5.40039C5.95268 14 6.40039 13.5523 6.40039 13C6.40039 12.4477 5.95268 12 5.40039 12H2.58221C2.48179 12 2.40039 11.9186 2.40039 11.8182C2.40039 11.5337 2.46573 11.2645 2.58221 11.0247C2.75638 10.6662 3.04492 10.3735 3.40039 10.1941C3.64632 10.0699 3.92428 10 4.21857 10H5.40039C5.95268 10 6.40039 9.55228 6.40039 9Z" fill="#72788E"/>
<path fill-rule="evenodd" clip-rule="evenodd" d="M0.406982 19.0029C0.406982 18.4506 0.854698 18.0029 1.40698 18.0029L19.4497 18.0029C20.002 18.0029 20.4497 18.4506 20.4497 19.0029C20.4497 19.5552 20.002 20.0029 19.4497 20.0029L1.40698 20.0029C0.854698 20.0029 0.406982 19.5552 0.406982 19.0029Z" fill="#72788E"/>
<path fill-rule="evenodd" clip-rule="evenodd" d="M17.289 18.3276C16.95 19.0047 16.0442 19.964 15.287 19.964H4.42409C3.65708 19.964 2.95763 19.5254 2.62365 18.8349C2.28966 18.1444 2.37999 17.3237 2.85615 16.7224L3.43684 15.9891C4.00586 15.2705 4.87216 14.8515 5.78876 14.8515H8.41812L10.728 10.8453M10.728 10.8453C11.2636 9.91626 12.2545 9.34381 13.3269 9.34381L17.7916 9.34383C19.6506 9.34384 20.8593 11.3006 20.0271 12.9629L17.289 18.3276M9.86217 16.351C9.68361 16.6607 9.35333 16.8515 8.99586 16.8515H5.78876C5.48322 16.8515 5.19446 16.9911 5.00478 17.2307L4.42409 17.964H15.287L18.2387 12.0676C18.4051 11.7352 18.1634 11.3438 17.7916 11.3438L13.3269 11.3438C12.9694 11.3438 12.6392 11.5346 12.4606 11.8443L9.86217 16.351Z" fill="#72788E"/>
<path fill-rule="evenodd" clip-rule="evenodd" d="M12.3898 3.55513C12.9369 3.47915 13.4419 3.86102 13.5179 4.40805L13.8588 6.86243C13.9348 7.40946 13.5529 7.91451 13.0059 7.99049C12.4588 8.06647 11.9538 7.6846 11.8778 7.13757L11.5369 4.68319C11.4609 4.13616 11.8428 3.63111 12.3898 3.55513Z" fill="#72788E"/>
<path fill-rule="evenodd" clip-rule="evenodd" d="M9.00827 6.14543C9.48024 5.85861 10.0954 6.0087 10.3822 6.48067L10.976 7.45775C11.2628 7.92971 11.1127 8.54483 10.6407 8.83165C10.1688 9.11847 9.55364 8.96838 9.26682 8.49641L8.67303 7.51933C8.38621 7.04737 8.53631 6.43225 9.00827 6.14543Z" fill="#72788E"/>
</svg>
