<svg width="24" height="24" viewBox="0 0 24 24" fill="none" xmlns="http://www.w3.org/2000/svg">
<path fill-rule="evenodd" clip-rule="evenodd" d="M4.84499 5.61923C6.88792 5.20671 8.9333 5 10.9802 5C14.3882 5 17.8033 5.34693 21.1946 6.01908C21.7364 6.12645 22.0885 6.65267 21.9811 7.19442C21.8737 7.73616 21.3475 8.08829 20.8058 7.98092C17.5371 7.33307 14.2522 7 10.9802 7C9.06802 7 7.15434 7.1931 5.23821 7.5802L5.23261 7.58133L3.1926 7.98131C2.65064 8.08758 2.12514 7.73438 2.01888 7.19241C1.91261 6.65045 2.26581 6.12495 2.80777 6.01869L4.84499 5.61923Z" fill="#FC5555"/>
<path fill-rule="evenodd" clip-rule="evenodd" d="M9.23394 4.86396L8.98261 6.18667C8.87952 6.72925 8.35609 7.08552 7.81352 6.98242C7.27094 6.87933 6.91467 6.35591 7.01777 5.81333L7.2692 4.4901C7.27379 4.46601 7.2786 4.44015 7.28352 4.41368C7.36126 3.9959 7.49158 3.29554 8.01372 2.77222C8.6003 2.18432 9.45947 2 10.503 2H13.4973C14.5541 2 15.4129 2.19982 15.9966 2.79436C16.5187 3.32614 16.6456 4.02733 16.7201 4.43903C16.724 4.4609 16.7278 4.48194 16.7315 4.50211L16.9823 5.81194C17.0862 6.35437 16.7307 6.8783 16.1882 6.98216C15.6458 7.08602 15.1219 6.73049 15.018 6.18806L14.7653 4.86828C14.6675 4.33797 14.6181 4.24506 14.5695 4.19554C14.5532 4.17897 14.372 4 13.4973 4H10.503C9.61519 4 9.44008 4.17426 9.42952 4.18485C9.38761 4.22685 9.33971 4.30903 9.23394 4.86396Z" fill="#FC5555"/>
<path fill-rule="evenodd" clip-rule="evenodd" d="M5.94513 7.00152C6.49658 6.97111 6.96827 7.3935 6.99867 7.94494L7.56775 18.2659C7.56779 18.2667 7.56784 18.2674 7.56789 18.2682C7.56887 18.2846 7.56984 18.3009 7.5708 18.3169C7.59454 18.7145 7.61204 19.0074 7.65374 19.2594C7.69593 19.5144 7.75028 19.6349 7.79351 19.6974C7.82829 19.7476 8.0066 20 9.13357 20H14.8668C15.9938 20 16.1721 19.7476 16.2069 19.6974C16.2501 19.6349 16.3044 19.5144 16.3466 19.2594C16.3883 19.0074 16.4058 18.7145 16.4296 18.317C16.4305 18.3009 16.4315 18.2847 16.4325 18.2683C16.4325 18.2675 16.4326 18.2667 16.4326 18.2659L17.0017 7.94494C17.0321 7.3935 17.5038 6.97111 18.0552 7.00152C18.6067 7.03192 19.0291 7.50361 18.9987 8.05506L18.4293 18.3807L18.4291 18.3854C18.4273 18.4146 18.4256 18.4441 18.4238 18.4739C18.4026 18.8322 18.3794 19.2261 18.3198 19.5859C18.2541 19.9833 18.1316 20.4307 17.8514 20.8356C17.2392 21.7201 16.1836 22 14.8668 22H9.13357C7.81676 22 6.76122 21.7201 6.14901 20.8356C5.86875 20.4307 5.74632 19.9833 5.68057 19.5859C5.62103 19.2261 5.59775 18.8322 5.57657 18.4739C5.57481 18.4441 5.57307 18.4146 5.57132 18.3854L5.57105 18.3807L5.00171 8.05506C4.9713 7.50361 5.39369 7.03192 5.94513 7.00152Z" fill="#FC5555"/>
<path fill-rule="evenodd" clip-rule="evenodd" d="M9.53739 15.1436C9.53739 14.5913 9.9851 14.1436 10.5374 14.1436H13.5374C14.0897 14.1436 14.5374 14.5913 14.5374 15.1436C14.5374 15.6958 14.0897 16.1436 13.5374 16.1436H10.5374C9.9851 16.1436 9.53739 15.6958 9.53739 15.1436Z" fill="#FC5555"/>
<path fill-rule="evenodd" clip-rule="evenodd" d="M8.81042 11.2612C8.81042 10.7089 9.25814 10.2612 9.81042 10.2612H13.8104C14.3627 10.2612 14.8104 10.7089 14.8104 11.2612C14.8104 11.8135 14.3627 12.2612 13.8104 12.2612H9.81042C9.25814 12.2612 8.81042 11.8135 8.81042 11.2612Z" fill="#FC5555"/>
</svg>
