<svg width="9" height="6" viewBox="0 0 9 6" fill="none" xmlns="http://www.w3.org/2000/svg">
<path d="M0.773247 5.66656H8.22658C8.35843 5.66601 8.48715 5.62638 8.59647 5.55267C8.7058 5.47896 8.79081 5.37449 8.84076 5.25247C8.89071 5.13045 8.90336 4.99635 8.8771 4.86714C8.85084 4.73794 8.78686 4.61941 8.69325 4.52657L4.97325 0.806574C4.91127 0.744088 4.83754 0.694492 4.7563 0.660646C4.67506 0.626801 4.58792 0.609375 4.49991 0.609375C4.41191 0.609375 4.32477 0.626801 4.24353 0.660646C4.16229 0.694492 4.08856 0.744088 4.02658 0.806574L0.30658 4.52657C0.212966 4.61941 0.148985 4.73794 0.122728 4.86714C0.0964714 4.99635 0.109118 5.13045 0.159068 5.25247C0.209018 5.37449 0.29403 5.47896 0.403352 5.55267C0.512674 5.62638 0.641398 5.66601 0.773247 5.66656Z" fill="#069A6E"/>
</svg>
