<svg width="40" height="40" viewBox="0 0 40 40" fill="none" xmlns="http://www.w3.org/2000/svg">
<rect width="40" height="40" rx="20" fill="#E3EFFF"/>
<path fill-rule="evenodd" clip-rule="evenodd" d="M20 20C22.7614 20 25 17.7614 25 15C25 12.2386 22.7614 10 20 10C17.2386 10 15 12.2386 15 15C15 17.7614 17.2386 20 20 20ZM23 15C23 16.6569 21.6569 18 20 18C18.3431 18 17 16.6569 17 15C17 13.3431 18.3431 12 20 12C21.6569 12 23 13.3431 23 15Z" fill="#0038FF"/>
<path fill-rule="evenodd" clip-rule="evenodd" d="M28 27.6364C28 24.5235 25.4765 22 22.3636 22H17.6364C14.5235 22 12 24.5235 12 27.6364C12 28.9418 13.0582 30 14.3636 30H25.6364C26.9418 30 28 28.9418 28 27.6364ZM22.3636 24C23.7834 24 25.0131 24.8136 25.6119 26C25.6201 26.0163 25.6284 26.0329 25.6364 26.0494C25.8693 26.529 26 27.0674 26 27.6364C26 27.8372 25.8372 28 25.6364 28H14.3636C14.1628 28 14 27.8372 14 27.6364C14 27.0674 14.1307 26.529 14.3636 26.0494C14.3716 26.0329 14.3799 26.0163 14.3881 26C14.9869 24.8136 16.2166 24 17.6364 24H22.3636Z" fill="#0038FF"/>
</svg>
