<svg width="16" height="20" viewBox="0 0 16 20" fill="none" xmlns="http://www.w3.org/2000/svg">
<path fill-rule="evenodd" clip-rule="evenodd" d="M8 10C10.7614 10 13 7.76142 13 5C13 2.23858 10.7614 0 8 0C5.23858 0 3 2.23858 3 5C3 7.76142 5.23858 10 8 10ZM11 5C11 6.65685 9.65685 8 8 8C6.34315 8 5 6.65685 5 5C5 3.34315 6.34315 2 8 2C9.65685 2 11 3.34315 11 5Z" fill="#0038FF"/>
<path fill-rule="evenodd" clip-rule="evenodd" d="M16 17.6364C16 14.5235 13.4765 12 10.3636 12H5.63636C2.52349 12 0 14.5235 0 17.6364C0 18.9418 1.05823 20 2.36364 20H13.6364C14.9418 20 16 18.9418 16 17.6364ZM10.3636 14C11.7834 14 13.0131 14.8136 13.6119 16C13.6201 16.0163 13.6284 16.0329 13.6364 16.0494C13.8693 16.529 14 17.0674 14 17.6364C14 17.8372 13.8372 18 13.6364 18H2.36364C2.16281 18 2 17.8372 2 17.6364C2 17.0674 2.13067 16.529 2.36364 16.0494C2.37164 16.0329 2.37986 16.0163 2.38811 16C2.98695 14.8136 4.21664 14 5.63636 14H10.3636Z" fill="#0038FF"/>
</svg>
