<svg width="24" height="24" viewBox="0 0 24 24" fill="none" xmlns="http://www.w3.org/2000/svg">
<g id="user/userGroup">
<g id="Vector">
<path fill-rule="evenodd" clip-rule="evenodd" d="M12 8C11.4477 8 11 8.44772 11 9C11 9.55228 11.4477 10 12 10C12.5523 10 13 9.55228 13 9C13 8.44772 12.5523 8 12 8ZM15 9C15 10.6569 13.6569 12 12 12C10.3431 12 9 10.6569 9 9C9 7.34315 10.3431 6 12 6C13.6569 6 15 7.34315 15 9Z" fill="#272424"/>
<path fill-rule="evenodd" clip-rule="evenodd" d="M8.00049 5.99604C8.00049 4.89366 7.10506 4 6.00049 4C4.89592 4 4.00049 4.89366 4.00049 5.99604C4.00049 7.09842 4.89592 7.99208 6.00049 7.99208C7.10506 7.99208 8.00049 7.09842 8.00049 5.99604ZM16.0376 5.99604C16.0376 4.89366 16.933 4 18.0376 4C19.1422 4 20.0376 4.89366 20.0376 5.99604C20.0376 7.09842 19.1422 7.99208 18.0376 7.99208C16.933 7.99208 16.0376 7.09842 16.0376 5.99604ZM10.6511 16.0079C10.4297 16.034 10.2204 16.0995 10.0304 16.1973C9.67911 16.3781 9.39404 16.669 9.22106 17.0244C9.10384 17.2652 9.03809 17.5356 9.03809 17.8214C9.03809 17.9222 9.12001 18.004 9.22106 18.004H14.8932C14.9943 18.004 15.0762 17.9222 15.0762 17.8214C15.0762 17.5356 15.0104 17.2652 14.8932 17.0244C14.7202 16.669 14.4351 16.3781 14.0839 16.1973C13.8939 16.0995 13.6846 16.034 13.4631 16.0079C13.3921 15.9996 13.3198 15.9952 13.2464 15.9952H10.8678C10.7945 15.9952 10.7222 15.9996 10.6511 16.0079ZM13.2464 13.9992H10.8678C8.75271 13.9992 7.03809 15.7104 7.03809 17.8214C7.03809 19.0246 8.01544 20 9.22106 20H14.8932C16.0988 20 17.0762 19.0246 17.0762 17.8214C17.0762 15.7104 15.3615 13.9992 13.2464 13.9992ZM15.4272 12.8888C14.8567 12.707 14.9573 11.9851 15.3622 11.5447C15.7998 11.0687 16.1361 10.4976 16.3368 9.86577C16.4912 9.37982 16.9083 8.9901 17.4191 8.9901H20.0102C21.1091 8.9901 22 9.88376 22 10.9861C22 12.0885 21.1091 12.9822 20.0102 12.9822H16.0305C15.8202 12.9822 15.6175 12.9495 15.4272 12.8888ZM8.60468 12.8893C9.17741 12.7082 9.07718 11.9841 8.67009 11.5432C8.23081 11.0673 7.89322 10.4965 7.69174 9.86511C7.5368 9.37955 7.11985 8.9901 6.60925 8.9901H3.99996C2.89541 8.9901 2 9.88376 2 10.9861C2 12.0885 2.89541 12.9822 3.99996 12.9822H7.99989C8.21069 12.9822 8.41388 12.9496 8.60468 12.8893Z" fill="#272424"/>
</g>
</g>
</svg>
