<svg width="24" height="24" viewBox="0 0 24 24" fill="none" xmlns="http://www.w3.org/2000/svg">
<g id="user/userInsideBorder">
<path id="Union" fill-rule="evenodd" clip-rule="evenodd" d="M11.0002 2C10.448 2 10.0002 2.44772 10.0002 3C10.0002 3.55228 10.448 4 11.0002 4H13.0002C13.5525 4 14.0002 3.55228 14.0002 3C14.0002 2.44772 13.5525 2 13.0002 2H11.0002ZM12.0002 8C10.8957 8 10.0002 8.89543 10.0002 10C10.0002 11.1046 10.8957 12 12.0002 12C13.1048 12 14.0002 11.1046 14.0002 10C14.0002 8.89543 13.1048 8 12.0002 8ZM9.97071 16.2412C10.1163 15.6554 10.8552 15 12.0002 15C13.1452 15 13.8842 15.6554 14.0298 16.2412C14.163 16.7772 14.7055 17.1037 15.2415 16.9705C15.7774 16.8372 16.1039 16.2948 15.9707 15.7588C15.549 14.0624 13.8172 13 12.0002 13C10.1832 13 8.45143 14.0624 8.02977 15.7588C7.89654 16.2948 8.22304 16.8372 8.75902 16.9705C9.29499 17.1037 9.83748 16.7772 9.97071 16.2412ZM7 4C7.55228 4 8 4.44772 8 5C8 5.55228 7.55228 6 7 6C5.34315 6 4 7.34315 4 9V17C4 18.6569 5.34315 20 7 20H17C18.6569 20 20 18.6569 20 17V9C20 7.34315 18.6569 6 17 6C16.4477 6 16 5.55228 16 5C16 4.44772 16.4477 4 17 4C19.7614 4 22 6.23858 22 9V17C22 19.7614 19.7614 22 17 22H7C4.23858 22 2 19.7614 2 17V9C2 6.23858 4.23858 4 7 4Z" fill="#72788E"/>
</g>
</svg>
