<svg width="25" height="24" viewBox="0 0 25 24" fill="none" xmlns="http://www.w3.org/2000/svg">
<path fill-rule="evenodd" clip-rule="evenodd" d="M12.2002 12C14.9616 12 17.2002 9.76142 17.2002 7C17.2002 4.23858 14.9616 2 12.2002 2C9.43877 2 7.2002 4.23858 7.2002 7C7.2002 9.76142 9.43877 12 12.2002 12ZM15.2002 7C15.2002 8.65685 13.857 10 12.2002 10C10.5433 10 9.2002 8.65685 9.2002 7C9.2002 5.34315 10.5433 4 12.2002 4C13.857 4 15.2002 5.34315 15.2002 7Z" fill="#72788E"/>
<path fill-rule="evenodd" clip-rule="evenodd" d="M20.2002 19.6364C20.2002 16.5235 17.6767 14 14.5638 14H9.83656C6.72368 14 4.2002 16.5235 4.2002 19.6364C4.2002 20.9418 5.25843 22 6.56383 22H17.8366C19.142 22 20.2002 20.9418 20.2002 19.6364ZM14.5638 16C15.9836 16 17.2132 16.8136 17.8121 18C17.8203 18.0163 17.8286 18.0329 17.8366 18.0494C18.0695 18.529 18.2002 19.0674 18.2002 19.6364C18.2002 19.8372 18.0374 20 17.8366 20H6.56383C6.363 20 6.2002 19.8372 6.2002 19.6364C6.2002 19.0674 6.33086 18.529 6.56383 18.0494C6.57184 18.0329 6.58005 18.0163 6.5883 18C7.18714 16.8136 8.41684 16 9.83656 16H14.5638Z" fill="#72788E"/>
</svg>
