<svg width="18" height="20" viewBox="0 0 18 20" fill="none" xmlns="http://www.w3.org/2000/svg">
<path d="M10.9645 1.70998e-07C10.0627 -6.50475e-06 9.3353 -1.18911e-05 8.7433 0.0403804C8.13455 0.0819146 7.59627 0.169479 7.08657 0.380603C6.28019 0.714618 5.58288 1.25047 5.0557 1.92711C4.8632 2.17418 4.76695 2.29772 4.82391 2.41077C4.88087 2.52382 5.04911 2.51969 5.38558 2.51144C5.85376 2.49995 6.36946 2.49997 6.92388 2.5H7.07608C7.24924 2.49999 7.41688 2.44582 7.56907 2.36324C7.66053 2.31361 7.75492 2.26855 7.85194 2.22836C8.07732 2.135 8.37253 2.07033 8.87944 2.03574C9.39533 2.00054 10.0544 2 11 2C11.9456 2 12.6046 2.00054 13.1205 2.03574C13.6275 2.07033 13.9227 2.135 14.148 2.22836C14.8831 2.53284 15.4671 3.11687 15.7716 3.85195C15.865 4.07734 15.9297 4.37254 15.9642 4.87945C15.9994 5.39534 16 6.05444 16 7V9C16 9.94557 15.9994 10.6047 15.9642 11.1206C15.9297 11.6275 15.865 11.9227 15.7716 12.1481C15.751 12.1978 15.7291 12.2469 15.706 12.2953C15.5883 12.541 15.5 12.8036 15.5 13.0761C15.5 13.6305 15.5 14.1462 15.4886 14.6144C15.4803 14.9509 15.4762 15.1191 15.5892 15.1761C15.7023 15.233 15.8258 15.1368 16.0729 14.9443C16.7495 14.4171 17.2854 13.7198 17.6194 12.9134C17.8305 12.4037 17.9181 11.8654 17.9596 11.2567C18 10.6647 18 9.93729 18 9.03555V6.96448C18 6.06273 18 5.33531 17.9596 4.74331C17.9181 4.13456 17.8305 3.59628 17.6194 3.08658C17.1119 1.86144 16.1385 0.888073 14.9134 0.380603C14.4037 0.169479 13.8654 0.0819146 13.2567 0.0403804C12.6647 -1.18911e-05 11.9373 -6.50475e-06 11.0355 1.70998e-07H10.9645Z" fill="#0038FF"/>
<path fill-rule="evenodd" clip-rule="evenodd" d="M6.96449 4H7.03552C7.93728 3.99999 8.66469 3.99999 9.25669 4.04038C9.86544 4.08191 10.4037 4.16948 10.9134 4.3806C12.1386 4.88807 13.1119 5.86144 13.6194 7.08658C13.8305 7.59628 13.9181 8.13457 13.9596 8.74331C14 9.33531 14 10.0627 14 10.9645V13.0355C14 13.9373 14 14.6647 13.9596 15.2567C13.9181 15.8654 13.8305 16.4037 13.6194 16.9134C13.1119 18.1386 12.1386 19.1119 10.9134 19.6194C10.4037 19.8305 9.86544 19.9181 9.25669 19.9596C8.66469 20 7.93728 20 7.03552 20H6.96448C6.06272 20 5.33531 20 4.74331 19.9596C4.13456 19.9181 3.59628 19.8305 3.08658 19.6194C1.86144 19.1119 0.888073 18.1386 0.380603 16.9134C0.169478 16.4037 0.0819144 15.8654 0.0403802 15.2567C-1.2219e-05 14.6647 -6.73396e-06 13.9373 1.80179e-07 13.0355V10.9645C-6.73396e-06 10.0627 -1.2219e-05 9.33532 0.0403802 8.74331C0.0819144 8.13457 0.169478 7.59628 0.380603 7.08658C0.888073 5.86144 1.86144 4.88807 3.08658 4.3806C3.59628 4.16948 4.13456 4.08191 4.74331 4.04038C5.33531 3.99999 6.06273 3.99999 6.96449 4ZM4.87945 6.03574C4.37254 6.07033 4.07734 6.135 3.85195 6.22836C3.11687 6.53284 2.53284 7.11687 2.22836 7.85195C2.135 8.07734 2.07033 8.37254 2.03574 8.87945C2.00054 9.39534 2 10.0544 2 11V13C2 13.9456 2.00054 14.6047 2.03574 15.1206C2.07033 15.6275 2.135 15.9227 2.22836 16.1481C2.53284 16.8831 3.11687 17.4672 3.85195 17.7716C4.07734 17.865 4.37254 17.9297 4.87945 17.9643C5.39534 17.9995 6.05444 18 7 18C7.94557 18 8.60466 17.9995 9.12055 17.9643C9.62746 17.9297 9.92267 17.865 10.1481 17.7716C10.8831 17.4672 11.4672 16.8831 11.7716 16.1481C11.865 15.9227 11.9297 15.6275 11.9643 15.1206C11.9995 14.6047 12 13.9456 12 13V11C12 10.0544 11.9995 9.39534 11.9643 8.87945C11.9297 8.37254 11.865 8.07734 11.7716 7.85195C11.4672 7.11687 10.8831 6.53284 10.1481 6.22836C9.92267 6.135 9.62746 6.07033 9.12055 6.03574C8.60466 6.00054 7.94557 6 7 6C6.05444 6 5.39534 6.00054 4.87945 6.03574Z" fill="#0038FF"/>
</svg>
