<svg width="16" height="16" viewBox="0 0 16 16" fill="none" xmlns="http://www.w3.org/2000/svg">
<g id="Frame">
<path id="Vector" d="M13.3333 9.00065V2.00065C13.3333 1.63246 13.0349 1.33398 12.6667 1.33398H3.33333C2.96514 1.33398 2.66666 1.63246 2.66666 2.00065V14.0007C2.66666 14.3689 2.96514 14.6673 3.33333 14.6673H7" stroke="#1D252D" stroke-width="1.5" stroke-linejoin="bevel"/>
<g id="Group 1261153743">
<g id="Group 1261153742">
<path id="Vector_2" fill-rule="evenodd" clip-rule="evenodd" d="M11.3329 14.408C12.8056 14.408 13.9996 13.1751 13.9996 12.3339C13.9996 11.4927 12.8056 10.2598 11.3329 10.2598C9.86008 10.2598 8.66615 11.4935 8.66615 12.3339C8.66615 13.1742 9.86008 14.408 11.3329 14.408Z" stroke="#1D252D" stroke-linejoin="bevel"/>
<path id="Vector_3" d="M11.333 13.2231C11.824 13.2231 12.2219 12.8251 12.2219 12.3342C12.2219 11.8433 11.824 11.4453 11.333 11.4453C10.8421 11.4453 10.4441 11.8433 10.4441 12.3342C10.4441 12.8251 10.8421 13.2231 11.333 13.2231Z" stroke="#1D252D" stroke-linejoin="bevel"/>
</g>
</g>
<path id="Vector_4" d="M5.66666 4H10.3333" stroke="#1D252D" stroke-width="1.5" stroke-linejoin="bevel"/>
<path id="Vector_5" d="M5.66666 6.66602H10.3333" stroke="#1D252D" stroke-width="1.5" stroke-linejoin="bevel"/>
<path id="Vector_6" d="M5.66666 9.33398H7.66666" stroke="#1D252D" stroke-width="1.5" stroke-linejoin="bevel"/>
</g>
</svg>
