<svg width="24" height="24" viewBox="0 0 24 24" fill="none" xmlns="http://www.w3.org/2000/svg">
<g id="finance/world">
<path id="Vector (Stroke)" fill-rule="evenodd" clip-rule="evenodd" d="M4.25203 10C4.08751 10.6392 4 11.3094 4 12C4 12.6906 4.08751 13.3608 4.25204 14H8.10906C8.03919 13.3714 8 12.7047 8 12C8 11.2953 8.03919 10.6286 8.10906 10H4.25203ZM5.07026 8H8.45471C8.75879 6.72036 9.17988 5.65418 9.60557 4.80279C9.69702 4.61989 9.78863 4.447 9.87927 4.28412C7.83069 4.8459 6.11052 6.20169 5.07026 8ZM12 4.63703C11.8127 4.92442 11.6041 5.27783 11.3944 5.69721C11.0839 6.31822 10.77 7.08553 10.5189 8H13.4811C13.23 7.08553 12.9161 6.31822 12.6056 5.69721C12.3959 5.27783 12.1873 4.92442 12 4.63703ZM13.877 10H10.123C10.0449 10.6204 10 11.287 10 12C10 12.713 10.0449 13.3796 10.123 14H13.877C13.9551 13.3796 14 12.713 14 12C14 11.287 13.9551 10.6204 13.877 10ZM15.8909 14C15.9608 13.3714 16 12.7047 16 12C16 11.2953 15.9608 10.6286 15.8909 10H19.748C19.9125 10.6392 20 11.3094 20 12C20 12.6906 19.9125 13.3608 19.748 14H15.8909ZM13.4811 16H10.5189C10.77 16.9145 11.0839 17.6818 11.3944 18.3028C11.6041 18.7222 11.8127 19.0756 12 19.363C12.1873 19.0756 12.3959 18.7222 12.6056 18.3028C12.9161 17.6818 13.23 16.9145 13.4811 16ZM9.87927 19.7159C9.78863 19.553 9.69702 19.3801 9.60557 19.1972C9.17988 18.3458 8.75879 17.2796 8.45471 16H5.07026C6.11052 17.7983 7.83069 19.1541 9.87927 19.7159ZM14.1207 19.7159C14.2114 19.553 14.303 19.3801 14.3944 19.1972C14.8201 18.3458 15.2412 17.2796 15.5453 16H18.9297C17.8895 17.7983 16.1693 19.1541 14.1207 19.7159ZM18.9297 8H15.5453C15.2412 6.72036 14.8201 5.65418 14.3944 4.80279C14.303 4.61989 14.2114 4.447 14.1207 4.28412C16.1693 4.8459 17.8895 6.20169 18.9297 8ZM2 12C2 6.47715 6.47715 2 12 2C17.5228 2 22 6.47715 22 12C22 17.5228 17.5228 22 12 22C6.47715 22 2 17.5228 2 12Z" fill="#72788E"/>
</g>
</svg>
