<svg width="155" height="153" viewBox="0 0 155 153" fill="none" xmlns="http://www.w3.org/2000/svg">
<path d="M144 72.375C144 78 143.25 83.625 142.125 88.875C141.375 92.25 140.25 95.25 139.125 98.25C132 117 117 132 98.25 139.125C96.75 139.5 95.625 140.25 94.125 140.625C87 142.875 79.875 144 72 144C32.25 144 0 111.75 0 72C0 32.25 32.25 0 72 0C111.75 0.375 144 32.625 144 72.375Z" fill="url(#paint0_linear_569_8295)"/>
<path d="M106.262 134.069L93.3514 152.442L67.0342 117.683L72.4962 102.585L106.262 134.069Z" fill="url(#paint1_linear_569_8295)"/>
<rect x="62.5654" y="102.29" width="16.8828" height="16.8828" rx="8.44138" fill="url(#paint2_linear_569_8295)"/>
<path d="M154.045 89.5375C153.295 92.5375 152.17 95.5375 151.045 98.5375C143.92 116.538 129.67 130.788 111.67 137.913L71.1699 95.8349V22.8418L76.4691 24.828L153.67 83.9125L154.045 89.5375Z" fill="url(#paint3_linear_569_8295)"/>
<rect x="62.5654" y="22.8418" width="16.8828" height="73.4897" rx="8.44138" fill="url(#paint4_linear_569_8295)"/>
<defs>
<linearGradient id="paint0_linear_569_8295" x1="33.3165" y1="13.3005" x2="112.568" y2="133.996" gradientUnits="userSpaceOnUse">
<stop stop-color="#FBF1E0"/>
<stop offset="1" stop-color="#F67C0D"/>
</linearGradient>
<linearGradient id="paint1_linear_569_8295" x1="79.9141" y1="84.8607" x2="110.149" y2="115.096" gradientUnits="userSpaceOnUse">
<stop stop-color="#FFA757"/>
<stop offset="1" stop-color="#F67C0D" stop-opacity="0"/>
</linearGradient>
<linearGradient id="paint2_linear_569_8295" x1="75.4711" y1="113.907" x2="66.3573" y2="106.942" gradientUnits="userSpaceOnUse">
<stop offset="0.0113208" stop-color="#FFEEC2"/>
<stop offset="1" stop-color="white"/>
</linearGradient>
<linearGradient id="paint3_linear_569_8295" x1="-68.524" y1="42.2073" x2="121.074" y2="99.206" gradientUnits="userSpaceOnUse">
<stop stop-color="#FFA757"/>
<stop offset="1" stop-color="#F67C0D" stop-opacity="0"/>
</linearGradient>
<linearGradient id="paint4_linear_569_8295" x1="75.4711" y1="73.4084" x2="61.4669" y2="70.9499" gradientUnits="userSpaceOnUse">
<stop offset="0.0113208" stop-color="#FFEEC2"/>
<stop offset="1" stop-color="white"/>
</linearGradient>
</defs>
</svg>
